<svg width="92" height="47" viewBox="0 0 92 47" fill="none" xmlns="http://www.w3.org/2000/svg">
<mask id="path-1-outside-1_65_153" maskUnits="userSpaceOnUse" x="-1" y="-1" width="94" height="49" fill="black">
<rect fill="white" x="-1" y="-1" width="94" height="49"/>
<path d="M35.496 26.064V27.408H4.44V26.064H35.496ZM33.336 11.856L36.552 8.304L43.128 13.296C42.84 13.68 42.264 14.16 41.256 14.352V29.808C41.208 30.192 37.512 31.44 35.112 31.44H33.816V11.856H33.336ZM8.232 29.904C8.232 30.624 4.968 32.256 1.944 32.256H0.888V8.832L8.76 11.808H35.208V13.152H8.232V29.904ZM26.472 1.872C26.376 2.544 26.04 3.072 24.696 3.264V44.016C24.696 44.736 21.48 46.56 18.648 46.56H17.256V1.008L26.472 1.872ZM53.16 28.128V25.2L60.888 28.128H81.096V29.472H60.504V44.16C60.504 44.832 57.24 46.416 54.216 46.416H53.16V28.128ZM77.976 28.128H77.448L80.712 24.528L87.384 29.616C87.048 30 86.424 30.48 85.368 30.72V44.352C85.32 44.688 81.624 45.888 79.224 45.888H77.976V28.128ZM56.76 41.232H82.344V42.576H56.76V41.232ZM46.584 9.648H81.24L84.888 4.992C84.888 4.992 89.064 8.112 91.56 10.224C91.416 10.752 90.84 10.992 90.168 10.992H46.968L46.584 9.648ZM48.984 20.4H79.368L83.064 15.696C83.064 15.696 87.288 18.816 89.784 20.976C89.64 21.504 89.112 21.744 88.392 21.744H49.368L48.984 20.4ZM65.112 0.815998L74.28 1.536C74.184 2.256 73.848 2.784 72.312 3.024V21.072H65.112V0.815998Z"/>
</mask>
<path d="M35.496 26.064V27.408H4.44V26.064H35.496ZM33.336 11.856L36.552 8.304L43.128 13.296C42.84 13.68 42.264 14.16 41.256 14.352V29.808C41.208 30.192 37.512 31.44 35.112 31.44H33.816V11.856H33.336ZM8.232 29.904C8.232 30.624 4.968 32.256 1.944 32.256H0.888V8.832L8.76 11.808H35.208V13.152H8.232V29.904ZM26.472 1.872C26.376 2.544 26.04 3.072 24.696 3.264V44.016C24.696 44.736 21.48 46.56 18.648 46.56H17.256V1.008L26.472 1.872ZM53.16 28.128V25.2L60.888 28.128H81.096V29.472H60.504V44.16C60.504 44.832 57.24 46.416 54.216 46.416H53.16V28.128ZM77.976 28.128H77.448L80.712 24.528L87.384 29.616C87.048 30 86.424 30.48 85.368 30.72V44.352C85.32 44.688 81.624 45.888 79.224 45.888H77.976V28.128ZM56.76 41.232H82.344V42.576H56.76V41.232ZM46.584 9.648H81.24L84.888 4.992C84.888 4.992 89.064 8.112 91.56 10.224C91.416 10.752 90.84 10.992 90.168 10.992H46.968L46.584 9.648ZM48.984 20.4H79.368L83.064 15.696C83.064 15.696 87.288 18.816 89.784 20.976C89.64 21.504 89.112 21.744 88.392 21.744H49.368L48.984 20.4ZM65.112 0.815998L74.28 1.536C74.184 2.256 73.848 2.784 72.312 3.024V21.072H65.112V0.815998Z" fill="url(#paint0_linear_65_153)"/>
<path d="M35.496 26.064H36.496V25.064H35.496V26.064ZM35.496 27.408V28.408H36.496V27.408H35.496ZM4.44 27.408H3.44V28.408H4.44V27.408ZM4.44 26.064V25.064H3.44V26.064H4.44ZM33.336 11.856L32.5947 11.1848L31.0816 12.856H33.336V11.856ZM36.552 8.304L37.1566 7.5075L36.4262 6.95301L35.8107 7.63282L36.552 8.304ZM43.128 13.296L43.928 13.896L44.5245 13.1006L43.7326 12.4995L43.128 13.296ZM41.256 14.352L41.0689 13.3697L40.256 13.5245V14.352H41.256ZM41.256 29.808L42.2483 29.932L42.256 29.8703V29.808H41.256ZM33.816 31.44H32.816V32.44H33.816V31.44ZM33.816 11.856H34.816V10.856H33.816V11.856ZM0.888 32.256H-0.112V33.256H0.888V32.256ZM0.888 8.832L1.24162 7.89661L-0.112 7.38487V8.832H0.888ZM8.76 11.808L8.40638 12.7434L8.57729 12.808H8.76V11.808ZM35.208 11.808H36.208V10.808H35.208V11.808ZM35.208 13.152V14.152H36.208V13.152H35.208ZM8.232 13.152V12.152H7.232V13.152H8.232ZM26.472 1.872L27.462 2.01342L27.6104 0.974338L26.5653 0.876365L26.472 1.872ZM24.696 3.264L24.5546 2.27405L23.696 2.3967V3.264H24.696ZM17.256 46.56H16.256V47.56H17.256V46.56ZM17.256 1.008L17.3493 0.0123642L16.256 -0.0901365V1.008H17.256ZM34.496 26.064V27.408H36.496V26.064H34.496ZM35.496 26.408H4.44V28.408H35.496V26.408ZM5.44 27.408V26.064H3.44V27.408H5.44ZM4.44 27.064H35.496V25.064H4.44V27.064ZM34.0773 12.5272L37.2933 8.97517L35.8107 7.63282L32.5947 11.1848L34.0773 12.5272ZM35.9474 9.1005L42.5234 14.0925L43.7326 12.4995L37.1566 7.5075L35.9474 9.1005ZM42.328 12.696C42.1873 12.8836 41.8284 13.225 41.0689 13.3697L41.4431 15.3343C42.6996 15.095 43.4927 14.4764 43.928 13.896L42.328 12.696ZM40.256 14.352V29.808H42.256V14.352H40.256ZM40.2637 29.684C40.3034 29.3666 40.4873 29.1936 40.499 29.1818C40.5394 29.1415 40.5616 29.1307 40.5362 29.147C40.49 29.1767 40.3868 29.2325 40.2123 29.3089C39.8722 29.4577 39.3734 29.6361 38.7851 29.8083C37.595 30.1566 36.1752 30.44 35.112 30.44V32.44C36.4488 32.44 38.077 32.0994 39.3469 31.7277C39.9886 31.5399 40.5728 31.3343 41.0142 31.1411C41.2304 31.0465 41.4426 30.9418 41.6171 30.8298C41.7021 30.7752 41.8109 30.6982 41.9119 30.5974C41.9843 30.5252 42.2026 30.2974 42.2483 29.932L40.2637 29.684ZM35.112 30.44H33.816V32.44H35.112V30.44ZM34.816 31.44V11.856H32.816V31.44H34.816ZM33.816 10.856H33.336V12.856H33.816V10.856ZM7.232 29.904C7.232 29.6395 7.36433 29.5159 7.31944 29.5694C7.29712 29.5961 7.22953 29.6636 7.09058 29.7636C6.8175 29.9602 6.38791 30.1973 5.83706 30.4271C4.73397 30.8871 3.29393 31.256 1.944 31.256V33.256C3.61807 33.256 5.32203 32.8089 6.60695 32.2729C7.2501 32.0047 7.8255 31.6988 8.25892 31.3869C8.47322 31.2326 8.68426 31.0546 8.85225 30.8541C8.99767 30.6806 9.232 30.3485 9.232 29.904H7.232ZM1.944 31.256H0.888V33.256H1.944V31.256ZM1.888 32.256V8.832H-0.112V32.256H1.888ZM0.534377 9.76739L8.40638 12.7434L9.11362 10.8726L1.24162 7.89661L0.534377 9.76739ZM8.76 12.808H35.208V10.808H8.76V12.808ZM34.208 11.808V13.152H36.208V11.808H34.208ZM35.208 12.152H8.232V14.152H35.208V12.152ZM7.232 13.152V29.904H9.232V13.152H7.232ZM25.4821 1.73058C25.4527 1.9363 25.4088 1.98124 25.3793 2.00806C25.3244 2.05795 25.1299 2.19186 24.5546 2.27405L24.8374 4.25395C25.6061 4.14414 26.2516 3.91805 26.7247 3.48794C27.2232 3.03476 27.3953 2.47969 27.462 2.01342L25.4821 1.73058ZM23.696 3.264V44.016H25.696V3.264H23.696ZM23.696 44.016C23.696 43.7649 23.8168 43.6496 23.7664 43.7136C23.7392 43.7482 23.668 43.8234 23.5306 43.9316C23.2601 44.1446 22.8392 44.4028 22.3075 44.6535C21.237 45.1583 19.873 45.56 18.648 45.56V47.56C20.255 47.56 21.915 47.0497 23.1605 46.4625C23.7868 46.1672 24.347 45.8344 24.7679 45.5029C24.9762 45.3389 25.1784 45.1534 25.3381 44.9504C25.4747 44.7769 25.696 44.4471 25.696 44.016H23.696ZM18.648 45.56H17.256V47.56H18.648V45.56ZM18.256 46.56V1.008H16.256V46.56H18.256ZM17.1627 2.00363L26.3787 2.86763L26.5653 0.876365L17.3493 0.0123642L17.1627 2.00363ZM53.16 25.2L53.5143 24.2649L52.16 23.7517V25.2H53.16ZM60.888 28.128L60.5337 29.0631L60.7049 29.128H60.888V28.128ZM81.096 28.128H82.096V27.128H81.096V28.128ZM81.096 29.472V30.472H82.096V29.472H81.096ZM60.504 29.472V28.472H59.504V29.472H60.504ZM53.16 46.416H52.16V47.416H53.16V46.416ZM77.976 28.128H78.976V27.128H77.976V28.128ZM77.448 28.128L76.7072 27.4563L75.1915 29.128H77.448V28.128ZM80.712 24.528L81.3184 23.7328L80.5881 23.1759L79.9712 23.8563L80.712 24.528ZM87.384 29.616L88.1366 30.2745L88.841 29.4695L87.9904 28.8208L87.384 29.616ZM85.368 30.72L85.1464 29.7449L84.368 29.9218V30.72H85.368ZM85.368 44.352L86.358 44.4934L86.368 44.4231V44.352H85.368ZM77.976 45.888H76.976V46.888H77.976V45.888ZM56.76 41.232V40.232H55.76V41.232H56.76ZM82.344 41.232H83.344V40.232H82.344V41.232ZM82.344 42.576V43.576H83.344V42.576H82.344ZM56.76 42.576H55.76V43.576H56.76V42.576ZM46.584 9.648V8.648H45.2583L45.6225 9.92272L46.584 9.648ZM81.24 9.648V10.648H81.7269L82.0272 10.2647L81.24 9.648ZM84.888 4.992L85.4865 4.1909L84.7036 3.60595L84.1008 4.37525L84.888 4.992ZM91.56 10.224L92.5248 10.4871L92.6924 9.87227L92.2059 9.46061L91.56 10.224ZM46.968 10.992L46.0065 11.2667L46.2137 11.992H46.968V10.992ZM48.984 20.4V19.4H47.6583L48.0225 20.6747L48.984 20.4ZM79.368 20.4V21.4H79.854L80.1543 21.0178L79.368 20.4ZM83.064 15.696L83.6581 14.8916L82.8774 14.3149L82.2777 15.0782L83.064 15.696ZM89.784 20.976L90.7488 21.2391L90.9144 20.6318L90.4384 20.2198L89.784 20.976ZM49.368 21.744L48.4065 22.0187L48.6137 22.744H49.368V21.744ZM65.112 0.815998L65.1903 -0.180932L64.112 -0.265615V0.815998H65.112ZM74.28 1.536L75.2712 1.66816L75.4108 0.621721L74.3583 0.539067L74.28 1.536ZM72.312 3.024L72.1576 2.03599L71.312 2.16811V3.024H72.312ZM72.312 21.072V22.072H73.312V21.072H72.312ZM65.112 21.072H64.112V22.072H65.112V21.072ZM54.16 28.128V25.2H52.16V28.128H54.16ZM52.8057 26.1351L60.5337 29.0631L61.2423 27.1929L53.5143 24.2649L52.8057 26.1351ZM60.888 29.128H81.096V27.128H60.888V29.128ZM80.096 28.128V29.472H82.096V28.128H80.096ZM81.096 28.472H60.504V30.472H81.096V28.472ZM59.504 29.472V44.16H61.504V29.472H59.504ZM59.504 44.16C59.504 43.8682 59.6585 43.7311 59.6087 43.7875C59.5876 43.8113 59.5202 43.8757 59.38 43.9721C59.1052 44.1611 58.6735 44.3901 58.121 44.6122C57.0149 45.0568 55.5708 45.416 54.216 45.416V47.416C55.8852 47.416 57.5851 46.9832 58.867 46.4678C59.5085 46.2099 60.0818 45.9169 60.5135 45.6199C60.7266 45.4733 60.9378 45.3037 61.107 45.1123C61.2475 44.9534 61.504 44.6198 61.504 44.16H59.504ZM54.216 45.416H53.16V47.416H54.216V45.416ZM54.16 46.416V28.128H52.16V46.416H54.16ZM77.976 27.128H77.448V29.128H77.976V27.128ZM78.1888 28.7997L81.4528 25.1997L79.9712 23.8563L76.7072 27.4563L78.1888 28.7997ZM80.1056 25.3232L86.7776 30.4112L87.9904 28.8208L81.3184 23.7328L80.1056 25.3232ZM86.6314 28.9575C86.432 29.1854 85.9927 29.5525 85.1464 29.7449L85.5896 31.6951C86.8553 31.4075 87.664 30.8146 88.1366 30.2745L86.6314 28.9575ZM84.368 30.72V44.352H86.368V30.72H84.368ZM84.3781 44.2106C84.4061 44.0145 84.4874 43.8787 84.5333 43.8131C84.582 43.7435 84.628 43.6998 84.6487 43.6811C84.6889 43.645 84.7094 43.6362 84.6813 43.6527C84.6308 43.6825 84.5234 43.7359 84.3468 43.8081C84.0024 43.9489 83.5 44.1185 82.9101 44.2825C81.7167 44.6144 80.2927 44.888 79.224 44.888V46.888C80.5553 46.888 82.1794 46.5616 83.4459 46.2095C84.086 46.0315 84.6666 45.8381 85.1037 45.6594C85.3179 45.5718 85.5258 45.4764 85.696 45.3762C85.7783 45.3278 85.8854 45.2588 85.9862 45.1681C86.0438 45.1163 86.3018 44.8868 86.358 44.4934L84.3781 44.2106ZM79.224 44.888H77.976V46.888H79.224V44.888ZM78.976 45.888V28.128H76.976V45.888H78.976ZM56.76 42.232H82.344V40.232H56.76V42.232ZM81.344 41.232V42.576H83.344V41.232H81.344ZM82.344 41.576H56.76V43.576H82.344V41.576ZM57.76 42.576V41.232H55.76V42.576H57.76ZM46.584 10.648H81.24V8.648H46.584V10.648ZM82.0272 10.2647L85.6752 5.60874L84.1008 4.37525L80.4528 9.03125L82.0272 10.2647ZM84.888 4.992C84.2895 5.7931 84.2895 5.7931 84.2895 5.79312C84.2895 5.79314 84.2896 5.79316 84.2896 5.7932C84.2897 5.79328 84.2899 5.79341 84.2901 5.79358C84.2906 5.79393 84.2913 5.79447 84.2923 5.79519C84.2942 5.79664 84.2971 5.79883 84.301 5.80175C84.3089 5.8076 84.3206 5.81636 84.336 5.82791C84.3668 5.85102 84.4126 5.8853 84.4717 5.92973C84.59 6.01861 84.7621 6.1481 84.9764 6.31016C85.4051 6.63433 86.0028 7.08852 86.678 7.60836C88.0319 8.65079 89.6846 9.9471 90.9141 10.9874L92.2059 9.46061C90.9394 8.38889 89.2561 7.06921 87.8981 6.02364C87.2172 5.49947 86.6149 5.04167 86.1826 4.71484C85.9664 4.5514 85.7927 4.42064 85.6729 4.33064C85.613 4.28564 85.5666 4.25082 85.535 4.22719C85.5193 4.21538 85.5072 4.20636 85.4991 4.20027C85.495 4.19723 85.4919 4.19491 85.4898 4.19334C85.4888 4.19256 85.488 4.19196 85.4874 4.19155C85.4871 4.19135 85.4869 4.19119 85.4868 4.19108C85.4867 4.19103 85.4866 4.19098 85.4866 4.19095C85.4866 4.19092 85.4865 4.1909 84.888 4.992ZM90.5952 9.96088C90.6 9.94326 90.6111 9.9226 90.624 9.90783C90.6347 9.89568 90.6342 9.90156 90.6061 9.91596C90.5413 9.94915 90.3977 9.992 90.168 9.992V11.992C90.9573 11.992 92.1928 11.7044 92.5248 10.4871L90.5952 9.96088ZM90.168 9.992H46.968V11.992H90.168V9.992ZM47.9295 10.7173L47.5455 9.37328L45.6225 9.92272L46.0065 11.2667L47.9295 10.7173ZM48.984 21.4H79.368V19.4H48.984V21.4ZM80.1543 21.0178L83.8503 16.3138L82.2777 15.0782L78.5817 19.7822L80.1543 21.0178ZM83.064 15.696C82.4699 16.5004 82.4699 16.5004 82.4699 16.5004C82.4699 16.5004 82.4699 16.5004 82.47 16.5005C82.4701 16.5005 82.4703 16.5006 82.4705 16.5008C82.4709 16.5012 82.4717 16.5017 82.4726 16.5024C82.4746 16.5038 82.4775 16.506 82.4814 16.5089C82.4893 16.5147 82.5011 16.5235 82.5166 16.535C82.5477 16.558 82.5939 16.5923 82.6536 16.6367C82.773 16.7255 82.9467 16.855 83.163 17.0172C83.5958 17.3418 84.1987 17.797 84.8791 18.3193C86.2445 19.3672 87.905 20.6724 89.1296 21.7322L90.4384 20.2198C89.167 19.1196 87.4675 17.7848 86.0969 16.7327C85.4093 16.205 84.8002 15.7452 84.363 15.4172C84.1443 15.2532 83.9685 15.1221 83.8472 15.0319C83.7865 14.9868 83.7394 14.9518 83.7075 14.9281C83.6915 14.9163 83.6792 14.9072 83.671 14.9011C83.6668 14.898 83.6637 14.8957 83.6615 14.8941C83.6604 14.8933 83.6596 14.8927 83.6591 14.8923C83.6588 14.8921 83.6586 14.8919 83.6584 14.8918C83.6583 14.8918 83.6583 14.8917 83.6582 14.8917C83.6582 14.8917 83.6581 14.8916 83.064 15.696ZM88.8192 20.7129C88.8192 20.7129 88.8206 20.708 88.8248 20.7C88.8289 20.692 88.8343 20.6839 88.8402 20.6768C88.853 20.6615 88.8583 20.6626 88.8392 20.6726C88.7906 20.6981 88.6549 20.744 88.392 20.744V22.744C89.2498 22.744 90.4202 22.444 90.7488 21.2391L88.8192 20.7129ZM88.392 20.744H49.368V22.744H88.392V20.744ZM50.3295 21.4693L49.9455 20.1253L48.0225 20.6747L48.4065 22.0187L50.3295 21.4693ZM65.0337 1.81293L74.2017 2.53293L74.3583 0.539067L65.1903 -0.180932L65.0337 1.81293ZM73.2888 1.40384C73.2579 1.63523 73.2131 1.67625 73.1775 1.70742C73.0994 1.77576 72.8534 1.92728 72.1576 2.03599L72.4664 4.01201C73.3066 3.88072 73.9966 3.64823 74.4945 3.21257C75.0349 2.73974 75.2061 2.15676 75.2712 1.66816L73.2888 1.40384ZM71.312 3.024V21.072H73.312V3.024H71.312ZM72.312 20.072H65.112V22.072H72.312V20.072ZM66.112 21.072V0.815998H64.112V21.072H66.112Z" fill="#BC4400" mask="url(#path-1-outside-1_65_153)"/>
<defs>
<linearGradient id="paint0_linear_65_153" x1="5.88889" y1="-9" x2="10.9942" y2="55.5165" gradientUnits="userSpaceOnUse">
<stop offset="0.109375" stop-color="#FE9669"/>
<stop offset="0.270833" stop-color="#FFD8C8"/>
<stop offset="0.46875" stop-color="#FF9467"/>
<stop offset="0.619792" stop-color="#FFD5C3"/>
<stop offset="0.723958" stop-color="#FFB393"/>
<stop offset="0.822917" stop-color="#FCA17B"/>
<stop offset="1" stop-color="#EFD3C7"/>
</linearGradient>
</defs>
</svg>
