<svg width="39" height="43" viewBox="0 0 39 43" fill="none" xmlns="http://www.w3.org/2000/svg">
<mask id="path-1-outside-1_65_155" maskUnits="userSpaceOnUse" x="0" y="0" width="39" height="43" fill="black">
<rect fill="white" width="39" height="43"/>
<path d="M2.33162 41.0437C1.6341 41.0754 1.20608 40.7425 1.04756 40.045C1.01585 39.8865 1 39.7279 1 39.5694C1.03171 39.4426 1.06341 39.2999 1.09512 39.1414C1.41217 37.8732 1.64996 36.3196 1.80848 34.4807C1.96701 32.6101 2.04627 30.4542 2.04627 28.0129C2.04627 27.3153 2.06213 26.4434 2.09383 25.3972C2.15724 24.3192 2.22065 23.051 2.28406 21.5925C2.47429 18.3903 2.56941 16.0283 2.56941 14.5064C2.56941 7.97515 2.22065 4.24979 1.52314 3.33034C0.952442 2.75964 0.873179 2.33162 1.28535 2.04627C1.41217 1.98286 1.49143 1.9353 1.52314 1.9036C2.06213 1.52314 2.56941 1.52314 3.04499 1.9036C4.40831 2.56941 5.47044 3.28278 6.23136 4.0437C6.4533 4.36075 6.54841 4.58269 6.51671 4.70951C5.91431 6.26307 5.62896 8.68852 5.66067 11.9859C5.69237 14.015 5.64482 15.4734 5.51799 16.3612C5.51799 18.3903 5.47044 20.15 5.37532 21.6401C5.28021 23.0985 5.15338 24.2875 4.99486 25.2069V34.5283C5.05827 34.8453 5.39117 35.3051 5.99357 35.9075C6.27892 35.9075 7.32519 35.8599 9.13239 35.7648C12.5566 35.5429 15.2674 35.416 17.2648 35.3843C19.2939 35.3209 20.6097 35.3368 21.2121 35.4319C21.4974 35.4636 22.1949 35.5111 23.3046 35.5746C24.446 35.638 25.9837 35.7014 27.9177 35.7648C29.0274 35.7965 30.042 35.8758 30.9614 36.0026C31.9126 36.0977 32.7845 36.2245 33.5771 36.383C34.4966 36.3513 34.988 35.7331 35.0514 34.5283C34.8929 33.5137 34.7819 32.1821 34.7185 30.5334C34.6551 28.853 34.6392 26.8873 34.6709 24.6363C34.7344 21.9096 34.6868 19.7695 34.5283 18.2159C34.4332 17.6452 34.3856 16.8685 34.3856 15.8856C34.3856 14.871 34.4173 13.6345 34.4807 12.1761C34.5124 11.8907 34.5283 11.6371 34.5283 11.4152C34.5283 11.1615 34.5283 10.9396 34.5283 10.7494C34.5283 7.61054 34.2271 5.37532 33.6247 4.0437C33.5296 3.82177 33.4344 3.61568 33.3393 3.42545C33.2442 3.23522 33.1332 3.06084 33.0064 2.90232C32.7211 2.2048 32.9272 1.64996 33.6247 1.23779C34.0051 1.07926 34.3063 1 34.5283 1C36.3038 1.85604 37.3025 2.71208 37.5244 3.56812C37.5561 3.69495 37.5561 3.82177 37.5244 3.94859C37.5244 4.0437 37.5086 4.13882 37.4769 4.23393C37.4769 4.36075 37.35 4.89974 37.0964 5.8509C37.0647 5.97772 37.033 6.10454 37.0013 6.23136C37.0013 6.35818 37.0013 6.48501 37.0013 6.61183C37.3817 8.35562 37.6195 11.5261 37.7147 16.1234C37.7781 18.2159 37.8732 19.8488 38 21.0219C38 21.4657 37.9841 22.0523 37.9524 22.7815C37.9524 23.479 37.9366 24.2875 37.9049 25.2069C37.8415 27.0776 37.8098 28.7104 37.8098 30.1054C37.8098 31.5004 37.8732 32.6577 38 33.5771V36.8586C37.9366 39.0146 36.9537 39.6328 35.0514 38.7134C33.5296 38.111 31.7224 37.8098 29.6298 37.8098C29.1225 37.8098 28.4726 37.7781 27.6799 37.7147C26.919 37.683 25.9996 37.6354 24.9216 37.572C23.8436 37.5086 22.9242 37.4452 22.1632 37.3818C21.4023 37.35 20.7682 37.3342 20.2609 37.3342C20.1024 37.3342 19.8963 37.3342 19.6427 37.3342C19.4207 37.3342 19.1354 37.3183 18.7866 37.2866C16.5039 37.1598 14.871 37.3342 13.8882 37.8098C12.4297 38.1902 10.7811 38.1902 8.94216 37.8098C7.00814 37.3659 5.47044 37.7147 4.32905 38.856C3.98029 39.2048 3.7108 39.6328 3.52057 40.1401C3.39375 40.7108 2.99743 41.012 2.33162 41.0437ZM8.03856 30.153C7.0557 30.2164 6.54841 30.0895 6.51671 29.7725C6.51671 29.7091 6.51671 29.614 6.51671 29.4872C6.51671 29.3603 6.50086 29.2177 6.46915 29.0591V28.3458L7.42031 27.2995C9.57626 26.7605 11.8115 25.4289 14.126 23.3046C15.1405 22.3218 15.949 21.5608 16.5514 21.0219C17.1855 20.4512 17.6135 20.0865 17.8355 19.928L18.2635 19.6427C19.1195 18.6915 19.1988 17.7245 18.5013 16.7416C18.4379 16.6465 18.3586 16.5673 18.2635 16.5039C18.2001 16.4087 18.1367 16.3295 18.0733 16.2661C17.6928 16.1075 17.138 15.8222 16.4087 15.41C15.7112 14.9979 14.8552 14.443 13.8406 13.7455C13.6504 13.6187 13.476 13.5077 13.3175 13.4126C13.159 13.2858 13.0004 13.1907 12.8419 13.1273C12.2395 12.9687 11.9066 12.6834 11.8432 12.2712C11.7798 11.8273 12.0968 11.6054 12.7943 11.6054C12.8578 11.6054 12.937 11.6054 13.0321 11.6054C13.1272 11.6054 13.2065 11.6213 13.2699 11.653C13.4284 11.7164 13.6979 11.859 14.0784 12.081C14.4906 12.3029 15.0137 12.5883 15.6478 12.937C16.5673 13.4443 17.2965 13.8565 17.8355 14.1735C18.4062 14.4906 18.8025 14.6808 19.0244 14.7442C20.039 15.3466 20.7682 15.521 21.2121 15.2674C21.4657 15.1088 21.7352 14.8869 22.0206 14.6015C22.1791 14.3162 22.3852 13.9674 22.6388 13.5553C22.8925 13.1431 23.1937 12.6675 23.5424 12.1285C25.0326 9.75065 25.9045 7.89589 26.1581 6.56427C26.2849 5.80334 26.2849 5.07412 26.1581 4.37661C26.1264 3.80591 26.4593 3.4096 27.1568 3.18766C27.6007 3.02914 27.9494 3.06084 28.2031 3.28278C29.0591 3.56812 29.9152 4.23394 30.7712 5.28021C30.8346 5.34362 30.898 5.42288 30.9614 5.518C31.0566 5.64482 31.1358 5.75579 31.1992 5.8509C31.2943 5.91431 31.3578 5.97772 31.3895 6.04113C31.0407 6.4533 30.3432 7.34105 29.2969 8.70437C28.2823 10.036 26.919 11.8273 25.2069 14.0784C24.9216 14.4589 24.6521 14.8235 24.3985 15.1722C24.1448 15.4893 23.907 15.7746 23.6851 16.0283C22.7339 17.0111 22.7656 17.9623 23.7802 18.8818C23.9387 19.0403 24.1924 19.2622 24.5411 19.5476C24.9216 19.8012 25.3655 20.1341 25.8728 20.5463C28.7579 22.7339 30.47 24.3351 31.009 25.3496C31.548 26.3959 31.3102 27.1885 30.2956 27.7275C29.6932 28.0129 29.2811 28.108 29.0591 28.0129C28.9323 27.886 28.8372 27.8068 28.7738 27.7751C27.3787 26.2532 26.2374 25.0009 25.3496 24.018C24.4936 23.0034 23.8912 22.2425 23.5424 21.7352C23.4156 21.5767 23.2888 21.4182 23.162 21.2596C23.0668 21.1011 22.9717 20.9584 22.8766 20.8316C21.4499 20.1024 20.3402 20.0866 19.5476 20.7841L19.3098 21.0219C17.6928 22.9242 15.1881 25.0801 11.7956 27.4897C11.1932 27.9019 10.7018 28.2506 10.3213 28.536C9.94087 28.8213 9.67138 29.0274 9.51285 29.1542C9.35433 29.3128 9.10068 29.4713 8.75193 29.6298C8.5934 29.7566 8.45073 29.8676 8.32391 29.9627C8.19709 30.0261 8.10197 30.0895 8.03856 30.153Z"/>
</mask>
<path d="M2.33162 41.0437C1.6341 41.0754 1.20608 40.7425 1.04756 40.045C1.01585 39.8865 1 39.7279 1 39.5694C1.03171 39.4426 1.06341 39.2999 1.09512 39.1414C1.41217 37.8732 1.64996 36.3196 1.80848 34.4807C1.96701 32.6101 2.04627 30.4542 2.04627 28.0129C2.04627 27.3153 2.06213 26.4434 2.09383 25.3972C2.15724 24.3192 2.22065 23.051 2.28406 21.5925C2.47429 18.3903 2.56941 16.0283 2.56941 14.5064C2.56941 7.97515 2.22065 4.24979 1.52314 3.33034C0.952442 2.75964 0.873179 2.33162 1.28535 2.04627C1.41217 1.98286 1.49143 1.9353 1.52314 1.9036C2.06213 1.52314 2.56941 1.52314 3.04499 1.9036C4.40831 2.56941 5.47044 3.28278 6.23136 4.0437C6.4533 4.36075 6.54841 4.58269 6.51671 4.70951C5.91431 6.26307 5.62896 8.68852 5.66067 11.9859C5.69237 14.015 5.64482 15.4734 5.51799 16.3612C5.51799 18.3903 5.47044 20.15 5.37532 21.6401C5.28021 23.0985 5.15338 24.2875 4.99486 25.2069V34.5283C5.05827 34.8453 5.39117 35.3051 5.99357 35.9075C6.27892 35.9075 7.32519 35.8599 9.13239 35.7648C12.5566 35.5429 15.2674 35.416 17.2648 35.3843C19.2939 35.3209 20.6097 35.3368 21.2121 35.4319C21.4974 35.4636 22.1949 35.5111 23.3046 35.5746C24.446 35.638 25.9837 35.7014 27.9177 35.7648C29.0274 35.7965 30.042 35.8758 30.9614 36.0026C31.9126 36.0977 32.7845 36.2245 33.5771 36.383C34.4966 36.3513 34.988 35.7331 35.0514 34.5283C34.8929 33.5137 34.7819 32.1821 34.7185 30.5334C34.6551 28.853 34.6392 26.8873 34.6709 24.6363C34.7344 21.9096 34.6868 19.7695 34.5283 18.2159C34.4332 17.6452 34.3856 16.8685 34.3856 15.8856C34.3856 14.871 34.4173 13.6345 34.4807 12.1761C34.5124 11.8907 34.5283 11.6371 34.5283 11.4152C34.5283 11.1615 34.5283 10.9396 34.5283 10.7494C34.5283 7.61054 34.2271 5.37532 33.6247 4.0437C33.5296 3.82177 33.4344 3.61568 33.3393 3.42545C33.2442 3.23522 33.1332 3.06084 33.0064 2.90232C32.7211 2.2048 32.9272 1.64996 33.6247 1.23779C34.0051 1.07926 34.3063 1 34.5283 1C36.3038 1.85604 37.3025 2.71208 37.5244 3.56812C37.5561 3.69495 37.5561 3.82177 37.5244 3.94859C37.5244 4.0437 37.5086 4.13882 37.4769 4.23393C37.4769 4.36075 37.35 4.89974 37.0964 5.8509C37.0647 5.97772 37.033 6.10454 37.0013 6.23136C37.0013 6.35818 37.0013 6.48501 37.0013 6.61183C37.3817 8.35562 37.6195 11.5261 37.7147 16.1234C37.7781 18.2159 37.8732 19.8488 38 21.0219C38 21.4657 37.9841 22.0523 37.9524 22.7815C37.9524 23.479 37.9366 24.2875 37.9049 25.2069C37.8415 27.0776 37.8098 28.7104 37.8098 30.1054C37.8098 31.5004 37.8732 32.6577 38 33.5771V36.8586C37.9366 39.0146 36.9537 39.6328 35.0514 38.7134C33.5296 38.111 31.7224 37.8098 29.6298 37.8098C29.1225 37.8098 28.4726 37.7781 27.6799 37.7147C26.919 37.683 25.9996 37.6354 24.9216 37.572C23.8436 37.5086 22.9242 37.4452 22.1632 37.3818C21.4023 37.35 20.7682 37.3342 20.2609 37.3342C20.1024 37.3342 19.8963 37.3342 19.6427 37.3342C19.4207 37.3342 19.1354 37.3183 18.7866 37.2866C16.5039 37.1598 14.871 37.3342 13.8882 37.8098C12.4297 38.1902 10.7811 38.1902 8.94216 37.8098C7.00814 37.3659 5.47044 37.7147 4.32905 38.856C3.98029 39.2048 3.7108 39.6328 3.52057 40.1401C3.39375 40.7108 2.99743 41.012 2.33162 41.0437ZM8.03856 30.153C7.0557 30.2164 6.54841 30.0895 6.51671 29.7725C6.51671 29.7091 6.51671 29.614 6.51671 29.4872C6.51671 29.3603 6.50086 29.2177 6.46915 29.0591V28.3458L7.42031 27.2995C9.57626 26.7605 11.8115 25.4289 14.126 23.3046C15.1405 22.3218 15.949 21.5608 16.5514 21.0219C17.1855 20.4512 17.6135 20.0865 17.8355 19.928L18.2635 19.6427C19.1195 18.6915 19.1988 17.7245 18.5013 16.7416C18.4379 16.6465 18.3586 16.5673 18.2635 16.5039C18.2001 16.4087 18.1367 16.3295 18.0733 16.2661C17.6928 16.1075 17.138 15.8222 16.4087 15.41C15.7112 14.9979 14.8552 14.443 13.8406 13.7455C13.6504 13.6187 13.476 13.5077 13.3175 13.4126C13.159 13.2858 13.0004 13.1907 12.8419 13.1273C12.2395 12.9687 11.9066 12.6834 11.8432 12.2712C11.7798 11.8273 12.0968 11.6054 12.7943 11.6054C12.8578 11.6054 12.937 11.6054 13.0321 11.6054C13.1272 11.6054 13.2065 11.6213 13.2699 11.653C13.4284 11.7164 13.6979 11.859 14.0784 12.081C14.4906 12.3029 15.0137 12.5883 15.6478 12.937C16.5673 13.4443 17.2965 13.8565 17.8355 14.1735C18.4062 14.4906 18.8025 14.6808 19.0244 14.7442C20.039 15.3466 20.7682 15.521 21.2121 15.2674C21.4657 15.1088 21.7352 14.8869 22.0206 14.6015C22.1791 14.3162 22.3852 13.9674 22.6388 13.5553C22.8925 13.1431 23.1937 12.6675 23.5424 12.1285C25.0326 9.75065 25.9045 7.89589 26.1581 6.56427C26.2849 5.80334 26.2849 5.07412 26.1581 4.37661C26.1264 3.80591 26.4593 3.4096 27.1568 3.18766C27.6007 3.02914 27.9494 3.06084 28.2031 3.28278C29.0591 3.56812 29.9152 4.23394 30.7712 5.28021C30.8346 5.34362 30.898 5.42288 30.9614 5.518C31.0566 5.64482 31.1358 5.75579 31.1992 5.8509C31.2943 5.91431 31.3578 5.97772 31.3895 6.04113C31.0407 6.4533 30.3432 7.34105 29.2969 8.70437C28.2823 10.036 26.919 11.8273 25.2069 14.0784C24.9216 14.4589 24.6521 14.8235 24.3985 15.1722C24.1448 15.4893 23.907 15.7746 23.6851 16.0283C22.7339 17.0111 22.7656 17.9623 23.7802 18.8818C23.9387 19.0403 24.1924 19.2622 24.5411 19.5476C24.9216 19.8012 25.3655 20.1341 25.8728 20.5463C28.7579 22.7339 30.47 24.3351 31.009 25.3496C31.548 26.3959 31.3102 27.1885 30.2956 27.7275C29.6932 28.0129 29.2811 28.108 29.0591 28.0129C28.9323 27.886 28.8372 27.8068 28.7738 27.7751C27.3787 26.2532 26.2374 25.0009 25.3496 24.018C24.4936 23.0034 23.8912 22.2425 23.5424 21.7352C23.4156 21.5767 23.2888 21.4182 23.162 21.2596C23.0668 21.1011 22.9717 20.9584 22.8766 20.8316C21.4499 20.1024 20.3402 20.0866 19.5476 20.7841L19.3098 21.0219C17.6928 22.9242 15.1881 25.0801 11.7956 27.4897C11.1932 27.9019 10.7018 28.2506 10.3213 28.536C9.94087 28.8213 9.67138 29.0274 9.51285 29.1542C9.35433 29.3128 9.10068 29.4713 8.75193 29.6298C8.5934 29.7566 8.45073 29.8676 8.32391 29.9627C8.19709 30.0261 8.10197 30.0895 8.03856 30.153Z" fill="url(#paint0_linear_65_155)"/>
<path d="M2.33162 41.0437C1.6341 41.0754 1.20608 40.7425 1.04756 40.045C1.01585 39.8865 1 39.7279 1 39.5694C1.03171 39.4426 1.06341 39.2999 1.09512 39.1414C1.41217 37.8732 1.64996 36.3196 1.80848 34.4807C1.96701 32.6101 2.04627 30.4542 2.04627 28.0129C2.04627 27.3153 2.06213 26.4434 2.09383 25.3972C2.15724 24.3192 2.22065 23.051 2.28406 21.5925C2.47429 18.3903 2.56941 16.0283 2.56941 14.5064C2.56941 7.97515 2.22065 4.24979 1.52314 3.33034C0.952442 2.75964 0.873179 2.33162 1.28535 2.04627C1.41217 1.98286 1.49143 1.9353 1.52314 1.9036C2.06213 1.52314 2.56941 1.52314 3.04499 1.9036C4.40831 2.56941 5.47044 3.28278 6.23136 4.0437C6.4533 4.36075 6.54841 4.58269 6.51671 4.70951C5.91431 6.26307 5.62896 8.68852 5.66067 11.9859C5.69237 14.015 5.64482 15.4734 5.51799 16.3612C5.51799 18.3903 5.47044 20.15 5.37532 21.6401C5.28021 23.0985 5.15338 24.2875 4.99486 25.2069V34.5283C5.05827 34.8453 5.39117 35.3051 5.99357 35.9075C6.27892 35.9075 7.32519 35.8599 9.13239 35.7648C12.5566 35.5429 15.2674 35.416 17.2648 35.3843C19.2939 35.3209 20.6097 35.3368 21.2121 35.4319C21.4974 35.4636 22.1949 35.5111 23.3046 35.5746C24.446 35.638 25.9837 35.7014 27.9177 35.7648C29.0274 35.7965 30.042 35.8758 30.9614 36.0026C31.9126 36.0977 32.7845 36.2245 33.5771 36.383C34.4966 36.3513 34.988 35.7331 35.0514 34.5283C34.8929 33.5137 34.7819 32.1821 34.7185 30.5334C34.6551 28.853 34.6392 26.8873 34.6709 24.6363C34.7344 21.9096 34.6868 19.7695 34.5283 18.2159C34.4332 17.6452 34.3856 16.8685 34.3856 15.8856C34.3856 14.871 34.4173 13.6345 34.4807 12.1761C34.5124 11.8907 34.5283 11.6371 34.5283 11.4152C34.5283 11.1615 34.5283 10.9396 34.5283 10.7494C34.5283 7.61054 34.2271 5.37532 33.6247 4.0437C33.5296 3.82177 33.4344 3.61568 33.3393 3.42545C33.2442 3.23522 33.1332 3.06084 33.0064 2.90232C32.7211 2.2048 32.9272 1.64996 33.6247 1.23779C34.0051 1.07926 34.3063 1 34.5283 1C36.3038 1.85604 37.3025 2.71208 37.5244 3.56812C37.5561 3.69495 37.5561 3.82177 37.5244 3.94859C37.5244 4.0437 37.5086 4.13882 37.4769 4.23393C37.4769 4.36075 37.35 4.89974 37.0964 5.8509C37.0647 5.97772 37.033 6.10454 37.0013 6.23136C37.0013 6.35818 37.0013 6.48501 37.0013 6.61183C37.3817 8.35562 37.6195 11.5261 37.7147 16.1234C37.7781 18.2159 37.8732 19.8488 38 21.0219C38 21.4657 37.9841 22.0523 37.9524 22.7815C37.9524 23.479 37.9366 24.2875 37.9049 25.2069C37.8415 27.0776 37.8098 28.7104 37.8098 30.1054C37.8098 31.5004 37.8732 32.6577 38 33.5771V36.8586C37.9366 39.0146 36.9537 39.6328 35.0514 38.7134C33.5296 38.111 31.7224 37.8098 29.6298 37.8098C29.1225 37.8098 28.4726 37.7781 27.6799 37.7147C26.919 37.683 25.9996 37.6354 24.9216 37.572C23.8436 37.5086 22.9242 37.4452 22.1632 37.3818C21.4023 37.35 20.7682 37.3342 20.2609 37.3342C20.1024 37.3342 19.8963 37.3342 19.6427 37.3342C19.4207 37.3342 19.1354 37.3183 18.7866 37.2866C16.5039 37.1598 14.871 37.3342 13.8882 37.8098C12.4297 38.1902 10.7811 38.1902 8.94216 37.8098C7.00814 37.3659 5.47044 37.7147 4.32905 38.856C3.98029 39.2048 3.7108 39.6328 3.52057 40.1401C3.39375 40.7108 2.99743 41.012 2.33162 41.0437ZM8.03856 30.153C7.0557 30.2164 6.54841 30.0895 6.51671 29.7725C6.51671 29.7091 6.51671 29.614 6.51671 29.4872C6.51671 29.3603 6.50086 29.2177 6.46915 29.0591V28.3458L7.42031 27.2995C9.57626 26.7605 11.8115 25.4289 14.126 23.3046C15.1405 22.3218 15.949 21.5608 16.5514 21.0219C17.1855 20.4512 17.6135 20.0865 17.8355 19.928L18.2635 19.6427C19.1195 18.6915 19.1988 17.7245 18.5013 16.7416C18.4379 16.6465 18.3586 16.5673 18.2635 16.5039C18.2001 16.4087 18.1367 16.3295 18.0733 16.2661C17.6928 16.1075 17.138 15.8222 16.4087 15.41C15.7112 14.9979 14.8552 14.443 13.8406 13.7455C13.6504 13.6187 13.476 13.5077 13.3175 13.4126C13.159 13.2858 13.0004 13.1907 12.8419 13.1273C12.2395 12.9687 11.9066 12.6834 11.8432 12.2712C11.7798 11.8273 12.0968 11.6054 12.7943 11.6054C12.8578 11.6054 12.937 11.6054 13.0321 11.6054C13.1272 11.6054 13.2065 11.6213 13.2699 11.653C13.4284 11.7164 13.6979 11.859 14.0784 12.081C14.4906 12.3029 15.0137 12.5883 15.6478 12.937C16.5673 13.4443 17.2965 13.8565 17.8355 14.1735C18.4062 14.4906 18.8025 14.6808 19.0244 14.7442C20.039 15.3466 20.7682 15.521 21.2121 15.2674C21.4657 15.1088 21.7352 14.8869 22.0206 14.6015C22.1791 14.3162 22.3852 13.9674 22.6388 13.5553C22.8925 13.1431 23.1937 12.6675 23.5424 12.1285C25.0326 9.75065 25.9045 7.89589 26.1581 6.56427C26.2849 5.80334 26.2849 5.07412 26.1581 4.37661C26.1264 3.80591 26.4593 3.4096 27.1568 3.18766C27.6007 3.02914 27.9494 3.06084 28.2031 3.28278C29.0591 3.56812 29.9152 4.23394 30.7712 5.28021C30.8346 5.34362 30.898 5.42288 30.9614 5.518C31.0566 5.64482 31.1358 5.75579 31.1992 5.8509C31.2943 5.91431 31.3578 5.97772 31.3895 6.04113C31.0407 6.4533 30.3432 7.34105 29.2969 8.70437C28.2823 10.036 26.919 11.8273 25.2069 14.0784C24.9216 14.4589 24.6521 14.8235 24.3985 15.1722C24.1448 15.4893 23.907 15.7746 23.6851 16.0283C22.7339 17.0111 22.7656 17.9623 23.7802 18.8818C23.9387 19.0403 24.1924 19.2622 24.5411 19.5476C24.9216 19.8012 25.3655 20.1341 25.8728 20.5463C28.7579 22.7339 30.47 24.3351 31.009 25.3496C31.548 26.3959 31.3102 27.1885 30.2956 27.7275C29.6932 28.0129 29.2811 28.108 29.0591 28.0129C28.9323 27.886 28.8372 27.8068 28.7738 27.7751C27.3787 26.2532 26.2374 25.0009 25.3496 24.018C24.4936 23.0034 23.8912 22.2425 23.5424 21.7352C23.4156 21.5767 23.2888 21.4182 23.162 21.2596C23.0668 21.1011 22.9717 20.9584 22.8766 20.8316C21.4499 20.1024 20.3402 20.0866 19.5476 20.7841L19.3098 21.0219C17.6928 22.9242 15.1881 25.0801 11.7956 27.4897C11.1932 27.9019 10.7018 28.2506 10.3213 28.536C9.94087 28.8213 9.67138 29.0274 9.51285 29.1542C9.35433 29.3128 9.10068 29.4713 8.75193 29.6298C8.5934 29.7566 8.45073 29.8676 8.32391 29.9627C8.19709 30.0261 8.10197 30.0895 8.03856 30.153Z" stroke="url(#paint1_linear_65_155)" stroke-width="2" mask="url(#path-1-outside-1_65_155)"/>
<defs>
<linearGradient id="paint0_linear_65_155" x1="19.5" y1="1" x2="19.5" y2="41.0458" gradientUnits="userSpaceOnUse">
<stop stop-color="#2A3ACA"/>
<stop offset="0.572917" stop-color="#9097CF"/>
<stop offset="1" stop-color="#131A58"/>
</linearGradient>
<linearGradient id="paint1_linear_65_155" x1="19.5" y1="1" x2="19.5" y2="41.0458" gradientUnits="userSpaceOnUse">
<stop stop-color="#030093"/>
<stop offset="1" stop-color="#010038"/>
</linearGradient>
</defs>
</svg>
