<svg width="46" height="47" viewBox="0 0 46 47" fill="none" xmlns="http://www.w3.org/2000/svg">
<mask id="path-1-outside-1_65_152" maskUnits="userSpaceOnUse" x="-1" y="-1" width="48" height="49" fill="black">
<rect fill="white" x="-1" y="-1" width="48" height="49"/>
<path d="M7.16 28.128V25.2L14.888 28.128H35.096V29.472H14.504V44.16C14.504 44.832 11.24 46.416 8.216 46.416H7.16V28.128ZM31.976 28.128H31.448L34.712 24.528L41.384 29.616C41.048 30 40.424 30.48 39.368 30.72V44.352C39.32 44.688 35.624 45.888 33.224 45.888H31.976V28.128ZM10.76 41.232H36.344V42.576H10.76V41.232ZM0.584 9.648H35.24L38.888 4.992C38.888 4.992 43.064 8.112 45.56 10.224C45.416 10.752 44.84 10.992 44.168 10.992H0.968L0.584 9.648ZM2.984 20.4H33.368L37.064 15.696C37.064 15.696 41.288 18.816 43.784 20.976C43.64 21.504 43.112 21.744 42.392 21.744H3.368L2.984 20.4ZM19.112 0.815998L28.28 1.536C28.184 2.256 27.848 2.784 26.312 3.024V21.072H19.112V0.815998Z"/>
</mask>
<path d="M7.16 28.128V25.2L14.888 28.128H35.096V29.472H14.504V44.16C14.504 44.832 11.24 46.416 8.216 46.416H7.16V28.128ZM31.976 28.128H31.448L34.712 24.528L41.384 29.616C41.048 30 40.424 30.48 39.368 30.72V44.352C39.32 44.688 35.624 45.888 33.224 45.888H31.976V28.128ZM10.76 41.232H36.344V42.576H10.76V41.232ZM0.584 9.648H35.24L38.888 4.992C38.888 4.992 43.064 8.112 45.56 10.224C45.416 10.752 44.84 10.992 44.168 10.992H0.968L0.584 9.648ZM2.984 20.4H33.368L37.064 15.696C37.064 15.696 41.288 18.816 43.784 20.976C43.64 21.504 43.112 21.744 42.392 21.744H3.368L2.984 20.4ZM19.112 0.815998L28.28 1.536C28.184 2.256 27.848 2.784 26.312 3.024V21.072H19.112V0.815998Z" fill="url(#paint0_linear_65_152)"/>
<path d="M7.16 25.2L7.5143 24.2649L6.16 23.7517V25.2H7.16ZM14.888 28.128L14.5337 29.0631L14.7049 29.128H14.888V28.128ZM35.096 28.128H36.096V27.128H35.096V28.128ZM35.096 29.472V30.472H36.096V29.472H35.096ZM14.504 29.472V28.472H13.504V29.472H14.504ZM7.16 46.416H6.16V47.416H7.16V46.416ZM31.976 28.128H32.976V27.128H31.976V28.128ZM31.448 28.128L30.7072 27.4563L29.1915 29.128H31.448V28.128ZM34.712 24.528L35.3184 23.7328L34.5881 23.1759L33.9712 23.8563L34.712 24.528ZM41.384 29.616L42.1366 30.2745L42.841 29.4695L41.9904 28.8208L41.384 29.616ZM39.368 30.72L39.1464 29.7449L38.368 29.9218V30.72H39.368ZM39.368 44.352L40.358 44.4934L40.368 44.4231V44.352H39.368ZM31.976 45.888H30.976V46.888H31.976V45.888ZM10.76 41.232V40.232H9.76V41.232H10.76ZM36.344 41.232H37.344V40.232H36.344V41.232ZM36.344 42.576V43.576H37.344V42.576H36.344ZM10.76 42.576H9.76V43.576H10.76V42.576ZM0.584 9.648V8.648H-0.74173L-0.377524 9.92272L0.584 9.648ZM35.24 9.648V10.648H35.7269L36.0272 10.2647L35.24 9.648ZM38.888 4.992L39.4865 4.1909L38.7036 3.60595L38.1008 4.37525L38.888 4.992ZM45.56 10.224L46.5248 10.4871L46.6924 9.87227L46.2059 9.46061L45.56 10.224ZM0.968 10.992L0.00647613 11.2667L0.213699 11.992H0.968V10.992ZM2.984 20.4V19.4H1.65827L2.02248 20.6747L2.984 20.4ZM33.368 20.4V21.4H33.854L34.1543 21.0178L33.368 20.4ZM37.064 15.696L37.6581 14.8916L36.8774 14.3149L36.2777 15.0782L37.064 15.696ZM43.784 20.976L44.7488 21.2391L44.9144 20.6318L44.4384 20.2198L43.784 20.976ZM3.368 21.744L2.40648 22.0187L2.6137 22.744H3.368V21.744ZM19.112 0.815998L19.1903 -0.180932L18.112 -0.265615V0.815998H19.112ZM28.28 1.536L29.2712 1.66816L29.4108 0.621721L28.3583 0.539067L28.28 1.536ZM26.312 3.024L26.1576 2.03599L25.312 2.16811V3.024H26.312ZM26.312 21.072V22.072H27.312V21.072H26.312ZM19.112 21.072H18.112V22.072H19.112V21.072ZM8.16 28.128V25.2H6.16V28.128H8.16ZM6.8057 26.1351L14.5337 29.0631L15.2423 27.1929L7.5143 24.2649L6.8057 26.1351ZM14.888 29.128H35.096V27.128H14.888V29.128ZM34.096 28.128V29.472H36.096V28.128H34.096ZM35.096 28.472H14.504V30.472H35.096V28.472ZM13.504 29.472V44.16H15.504V29.472H13.504ZM13.504 44.16C13.504 43.8682 13.6585 43.7311 13.6087 43.7875C13.5876 43.8113 13.5202 43.8757 13.38 43.9721C13.1052 44.1611 12.6735 44.3901 12.121 44.6122C11.0149 45.0568 9.57084 45.416 8.216 45.416V47.416C9.88516 47.416 11.5851 46.9832 12.867 46.4678C13.5085 46.2099 14.0818 45.9169 14.5135 45.6199C14.7266 45.4733 14.9378 45.3037 15.107 45.1123C15.2475 44.9534 15.504 44.6198 15.504 44.16H13.504ZM8.216 45.416H7.16V47.416H8.216V45.416ZM8.16 46.416V28.128H6.16V46.416H8.16ZM31.976 27.128H31.448V29.128H31.976V27.128ZM32.1888 28.7997L35.4528 25.1997L33.9712 23.8563L30.7072 27.4563L32.1888 28.7997ZM34.1056 25.3232L40.7776 30.4112L41.9904 28.8208L35.3184 23.7328L34.1056 25.3232ZM40.6314 28.9575C40.432 29.1854 39.9927 29.5525 39.1464 29.7449L39.5896 31.6951C40.8553 31.4075 41.664 30.8146 42.1366 30.2745L40.6314 28.9575ZM38.368 30.72V44.352H40.368V30.72H38.368ZM38.3781 44.2106C38.4061 44.0145 38.4874 43.8787 38.5333 43.8131C38.582 43.7435 38.628 43.6998 38.6487 43.6811C38.6889 43.645 38.7094 43.6362 38.6813 43.6527C38.6308 43.6825 38.5234 43.7359 38.3468 43.8081C38.0024 43.9489 37.5 44.1185 36.9101 44.2825C35.7167 44.6144 34.2927 44.888 33.224 44.888V46.888C34.5553 46.888 36.1794 46.5616 37.4459 46.2095C38.086 46.0315 38.6666 45.8381 39.1037 45.6594C39.3179 45.5718 39.5258 45.4764 39.696 45.3762C39.7783 45.3278 39.8854 45.2588 39.9862 45.1681C40.0438 45.1163 40.3018 44.8868 40.358 44.4934L38.3781 44.2106ZM33.224 44.888H31.976V46.888H33.224V44.888ZM32.976 45.888V28.128H30.976V45.888H32.976ZM10.76 42.232H36.344V40.232H10.76V42.232ZM35.344 41.232V42.576H37.344V41.232H35.344ZM36.344 41.576H10.76V43.576H36.344V41.576ZM11.76 42.576V41.232H9.76V42.576H11.76ZM0.584 10.648H35.24V8.648H0.584V10.648ZM36.0272 10.2647L39.6752 5.60874L38.1008 4.37525L34.4528 9.03125L36.0272 10.2647ZM38.888 4.992C38.2895 5.7931 38.2895 5.7931 38.2895 5.79312C38.2895 5.79314 38.2896 5.79316 38.2896 5.7932C38.2897 5.79328 38.2899 5.79341 38.2901 5.79358C38.2906 5.79393 38.2913 5.79447 38.2923 5.79519C38.2942 5.79664 38.2971 5.79883 38.301 5.80175C38.3089 5.8076 38.3206 5.81636 38.336 5.82791C38.3668 5.85102 38.4126 5.8853 38.4717 5.92973C38.59 6.01861 38.7621 6.1481 38.9764 6.31016C39.4051 6.63433 40.0028 7.08852 40.678 7.60836C42.0319 8.65079 43.6846 9.9471 44.9141 10.9874L46.2059 9.46061C44.9394 8.38889 43.2561 7.06921 41.8981 6.02364C41.2172 5.49947 40.6149 5.04167 40.1826 4.71484C39.9664 4.5514 39.7927 4.42064 39.6729 4.33064C39.613 4.28564 39.5666 4.25082 39.535 4.22719C39.5193 4.21538 39.5072 4.20636 39.4991 4.20027C39.495 4.19723 39.4919 4.19491 39.4898 4.19334C39.4888 4.19256 39.488 4.19196 39.4874 4.19155C39.4871 4.19135 39.4869 4.19119 39.4868 4.19108C39.4867 4.19103 39.4866 4.19098 39.4866 4.19095C39.4866 4.19092 39.4865 4.1909 38.888 4.992ZM44.5952 9.96088C44.6 9.94326 44.6111 9.9226 44.624 9.90783C44.6347 9.89568 44.6342 9.90156 44.6061 9.91596C44.5413 9.94915 44.3977 9.992 44.168 9.992V11.992C44.9573 11.992 46.1928 11.7044 46.5248 10.4871L44.5952 9.96088ZM44.168 9.992H0.968V11.992H44.168V9.992ZM1.92952 10.7173L1.54552 9.37328L-0.377524 9.92272L0.00647613 11.2667L1.92952 10.7173ZM2.984 21.4H33.368V19.4H2.984V21.4ZM34.1543 21.0178L37.8503 16.3138L36.2777 15.0782L32.5817 19.7822L34.1543 21.0178ZM37.064 15.696C36.4699 16.5004 36.4699 16.5004 36.4699 16.5004C36.4699 16.5004 36.4699 16.5004 36.47 16.5005C36.4701 16.5005 36.4703 16.5006 36.4705 16.5008C36.4709 16.5012 36.4717 16.5017 36.4726 16.5024C36.4746 16.5038 36.4775 16.506 36.4814 16.5089C36.4893 16.5147 36.5011 16.5235 36.5166 16.535C36.5477 16.558 36.5939 16.5923 36.6536 16.6367C36.773 16.7255 36.9467 16.855 37.163 17.0172C37.5958 17.3418 38.1987 17.797 38.8791 18.3193C40.2445 19.3672 41.905 20.6724 43.1296 21.7322L44.4384 20.2198C43.167 19.1196 41.4675 17.7848 40.0969 16.7327C39.4093 16.205 38.8002 15.7452 38.363 15.4172C38.1443 15.2532 37.9685 15.1221 37.8472 15.0319C37.7865 14.9868 37.7394 14.9518 37.7075 14.9281C37.6915 14.9163 37.6792 14.9072 37.671 14.9011C37.6668 14.898 37.6637 14.8957 37.6615 14.8941C37.6604 14.8933 37.6596 14.8927 37.6591 14.8923C37.6588 14.8921 37.6586 14.8919 37.6584 14.8918C37.6583 14.8918 37.6583 14.8917 37.6582 14.8917C37.6582 14.8917 37.6581 14.8916 37.064 15.696ZM42.8192 20.7129C42.8192 20.7129 42.8206 20.708 42.8248 20.7C42.8289 20.692 42.8343 20.6839 42.8402 20.6768C42.853 20.6615 42.8583 20.6626 42.8392 20.6726C42.7906 20.6981 42.6549 20.744 42.392 20.744V22.744C43.2498 22.744 44.4202 22.444 44.7488 21.2391L42.8192 20.7129ZM42.392 20.744H3.368V22.744H42.392V20.744ZM4.32952 21.4693L3.94552 20.1253L2.02248 20.6747L2.40648 22.0187L4.32952 21.4693ZM19.0337 1.81293L28.2017 2.53293L28.3583 0.539067L19.1903 -0.180932L19.0337 1.81293ZM27.2888 1.40384C27.2579 1.63523 27.2131 1.67625 27.1775 1.70742C27.0994 1.77576 26.8534 1.92728 26.1576 2.03599L26.4664 4.01201C27.3066 3.88072 27.9966 3.64823 28.4945 3.21257C29.0349 2.73974 29.2061 2.15676 29.2712 1.66816L27.2888 1.40384ZM25.312 3.024V21.072H27.312V3.024H25.312ZM26.312 20.072H19.112V22.072H26.312V20.072ZM20.112 21.072V0.815998H18.112V21.072H20.112Z" fill="#383838" mask="url(#path-1-outside-1_65_152)"/>
<defs>
<linearGradient id="paint0_linear_65_152" x1="8.77778" y1="-9" x2="33.9231" y2="56.8993" gradientUnits="userSpaceOnUse">
<stop stop-color="#585858"/>
<stop offset="0.35635" stop-color="#CCCCCC"/>
<stop offset="0.489583" stop-color="#B6B6B6"/>
<stop offset="0.692708" stop-color="#A7A7A7"/>
<stop offset="1" stop-color="#C3C3C3"/>
</linearGradient>
</defs>
</svg>
