<svg width="94" height="47" viewBox="0 0 94 47" fill="none" xmlns="http://www.w3.org/2000/svg">
<mask id="path-1-outside-1_65_151" maskUnits="userSpaceOnUse" x="-2" y="-1" width="97" height="50" fill="black">
<rect fill="white" x="-2" y="-1" width="97" height="50"/>
<path d="M0.584 15.648H34.568L38.552 10.608C38.552 10.608 43.016 13.968 45.704 16.224C45.56 16.752 44.984 16.992 44.264 16.992H0.968L0.584 15.648ZM18.008 1.2L27.56 2.064C27.416 2.832 26.936 3.264 25.784 3.456C25.352 21.744 25.928 37.296 0.536 46.608L0.152 45.984C19.064 33.84 17.96 19.2 18.008 1.2ZM25.352 15.984C26.744 25.152 32.552 33.984 45.992 38.976L45.944 39.552C42.392 40.272 40.328 42.576 39.752 46.608C28.712 39.504 25.64 26.112 24.68 16.08L25.352 15.984ZM55.16 28.128V25.2L62.888 28.128H83.096V29.472H62.504V44.16C62.504 44.832 59.24 46.416 56.216 46.416H55.16V28.128ZM79.976 28.128H79.448L82.712 24.528L89.384 29.616C89.048 30 88.424 30.48 87.368 30.72V44.352C87.32 44.688 83.624 45.888 81.224 45.888H79.976V28.128ZM58.76 41.232H84.344V42.576H58.76V41.232ZM48.584 9.648H83.24L86.888 4.992C86.888 4.992 91.064 8.112 93.56 10.224C93.416 10.752 92.84 10.992 92.168 10.992H48.968L48.584 9.648ZM50.984 20.4H81.368L85.064 15.696C85.064 15.696 89.288 18.816 91.784 20.976C91.64 21.504 91.112 21.744 90.392 21.744H51.368L50.984 20.4ZM67.112 0.815998L76.28 1.536C76.184 2.256 75.848 2.784 74.312 3.024V21.072H67.112V0.815998Z"/>
</mask>
<path d="M0.584 15.648H34.568L38.552 10.608C38.552 10.608 43.016 13.968 45.704 16.224C45.56 16.752 44.984 16.992 44.264 16.992H0.968L0.584 15.648ZM18.008 1.2L27.56 2.064C27.416 2.832 26.936 3.264 25.784 3.456C25.352 21.744 25.928 37.296 0.536 46.608L0.152 45.984C19.064 33.84 17.96 19.2 18.008 1.2ZM25.352 15.984C26.744 25.152 32.552 33.984 45.992 38.976L45.944 39.552C42.392 40.272 40.328 42.576 39.752 46.608C28.712 39.504 25.64 26.112 24.68 16.08L25.352 15.984ZM55.16 28.128V25.2L62.888 28.128H83.096V29.472H62.504V44.16C62.504 44.832 59.24 46.416 56.216 46.416H55.16V28.128ZM79.976 28.128H79.448L82.712 24.528L89.384 29.616C89.048 30 88.424 30.48 87.368 30.72V44.352C87.32 44.688 83.624 45.888 81.224 45.888H79.976V28.128ZM58.76 41.232H84.344V42.576H58.76V41.232ZM48.584 9.648H83.24L86.888 4.992C86.888 4.992 91.064 8.112 93.56 10.224C93.416 10.752 92.84 10.992 92.168 10.992H48.968L48.584 9.648ZM50.984 20.4H81.368L85.064 15.696C85.064 15.696 89.288 18.816 91.784 20.976C91.64 21.504 91.112 21.744 90.392 21.744H51.368L50.984 20.4ZM67.112 0.815998L76.28 1.536C76.184 2.256 75.848 2.784 74.312 3.024V21.072H67.112V0.815998Z" fill="url(#paint0_linear_65_151)"/>
<path d="M0.584 15.648V14.648H-0.74173L-0.377524 15.9227L0.584 15.648ZM34.568 15.648V16.648H35.0522L35.3525 16.2681L34.568 15.648ZM38.552 10.608L39.1534 9.80903L38.3731 9.22174L37.7675 9.98787L38.552 10.608ZM45.704 16.224L46.6688 16.4871L46.8372 15.8695L46.3469 15.458L45.704 16.224ZM0.968 16.992L0.00647613 17.2667L0.213699 17.992H0.968V16.992ZM18.008 1.2L18.0981 0.204065L17.0109 0.105728L17.008 1.19733L18.008 1.2ZM27.56 2.064L28.5429 2.24829L28.7456 1.16716L27.6501 1.06807L27.56 2.064ZM25.784 3.456L25.6196 2.4696L24.8038 2.60557L24.7843 3.43238L25.784 3.456ZM0.536 46.608L-0.315658 47.1321L0.112791 47.8283L0.880307 47.5469L0.536 46.608ZM0.152 45.984L-0.388326 45.1425L-1.2138 45.6726L-0.699658 46.5081L0.152 45.984ZM25.352 15.984L26.3407 15.8339L26.1919 14.8539L25.2106 14.994L25.352 15.984ZM45.992 38.976L46.9885 39.059L47.0516 38.3028L46.3402 38.0386L45.992 38.976ZM45.944 39.552L46.1427 40.5321L46.8782 40.383L46.9405 39.635L45.944 39.552ZM39.752 46.608L39.2109 47.4489L40.5215 48.2923L40.742 46.7494L39.752 46.608ZM24.68 16.08L24.5386 15.09L23.5936 15.225L23.6845 16.1753L24.68 16.08ZM0.584 16.648H34.568V14.648H0.584V16.648ZM35.3525 16.2681L39.3365 11.2281L37.7675 9.98787L33.7835 15.0279L35.3525 16.2681ZM38.552 10.608C37.9506 11.407 37.9506 11.407 37.9507 11.407C37.9507 11.407 37.9507 11.407 37.9508 11.4071C37.9509 11.4072 37.9511 11.4073 37.9513 11.4075C37.9518 11.4079 37.9526 11.4085 37.9537 11.4093C37.9558 11.4108 37.9589 11.4132 37.9631 11.4164C37.9715 11.4227 37.984 11.4321 38.0006 11.4446C38.0336 11.4695 38.0825 11.5065 38.1459 11.5544C38.2725 11.6502 38.4567 11.7897 38.6861 11.9642C39.1451 12.3133 39.785 12.8022 40.5086 13.3613C41.9588 14.4819 43.7334 15.8757 45.0611 16.99L46.3469 15.458C44.9866 14.3163 43.1852 12.9021 41.7315 11.7787C41.003 11.2158 40.3589 10.7237 39.8969 10.3723C39.6658 10.1966 39.4802 10.056 39.3523 9.95918C39.2883 9.91079 39.2387 9.87336 39.205 9.84797C39.1882 9.83528 39.1754 9.82559 39.1667 9.81906C39.1624 9.81579 39.1591 9.81331 39.1568 9.81163C39.1557 9.81079 39.1549 9.81016 39.1543 9.80972C39.154 9.8095 39.1538 9.80934 39.1536 9.80922C39.1536 9.80917 39.1535 9.80912 39.1535 9.80909C39.1534 9.80905 39.1534 9.80903 38.552 10.608ZM44.7392 15.9609C44.7441 15.943 44.7557 15.9209 44.7702 15.9046C44.7822 15.8909 44.7826 15.8967 44.7528 15.9116C44.6835 15.9462 44.5266 15.992 44.264 15.992V17.992C45.0814 17.992 46.3336 17.7161 46.6688 16.4871L44.7392 15.9609ZM44.264 15.992H0.968V17.992H44.264V15.992ZM1.92952 16.7173L1.54552 15.3733L-0.377524 15.9227L0.00647613 17.2667L1.92952 16.7173ZM17.9179 2.19593L27.4699 3.05993L27.6501 1.06807L18.0981 0.204065L17.9179 2.19593ZM26.5771 1.87971C26.5391 2.08232 26.481 2.15008 26.4213 2.19837C26.33 2.27221 26.1153 2.38698 25.6196 2.4696L25.9484 4.44239C26.6047 4.33301 27.206 4.13579 27.6787 3.75363C28.183 3.34591 28.4369 2.81368 28.5429 2.24829L26.5771 1.87971ZM24.7843 3.43238C24.5665 12.653 24.5918 20.8875 21.5981 28.0105C18.6474 35.0315 12.6964 41.0833 0.191693 45.6691L0.880307 47.5469C13.7676 42.8207 20.2246 36.4405 23.4419 28.7854C26.6162 21.2325 26.5695 12.547 26.7837 3.47961L24.7843 3.43238ZM1.38766 46.0839L1.00366 45.4599L-0.699658 46.5081L-0.315658 47.1321L1.38766 46.0839ZM0.692326 46.8255C10.3383 40.6315 14.9513 33.7399 17.1165 26.0593C19.2572 18.4657 18.9842 10.1323 19.008 1.20267L17.008 1.19733C16.9838 10.2677 17.2388 18.2543 15.1915 25.5167C13.1687 32.692 8.87772 39.1925 -0.388326 45.1425L0.692326 46.8255ZM24.3633 16.1341C25.8123 25.6773 31.8784 34.8006 45.6438 39.9134L46.3402 38.0386C33.2256 33.1674 27.6757 24.6267 26.3407 15.8339L24.3633 16.1341ZM44.9955 38.893L44.9475 39.469L46.9405 39.635L46.9885 39.059L44.9955 38.893ZM45.7453 38.5719C43.7953 38.9672 42.1828 39.8152 40.9821 41.1765C39.7878 42.5304 39.0696 44.3141 38.7621 46.4666L40.742 46.7494C41.0105 44.8699 41.6122 43.4856 42.482 42.4995C43.3452 41.5208 44.5407 40.8568 46.1427 40.5321L45.7453 38.5719ZM40.2931 45.7671C29.6728 38.9331 26.6316 25.9768 25.6755 15.9847L23.6845 16.1753C24.6484 26.2472 27.7512 40.0749 39.2109 47.4489L40.2931 45.7671ZM24.8214 17.0699L25.4934 16.9739L25.2106 14.994L24.5386 15.09L24.8214 17.0699ZM55.16 25.2L55.5143 24.2649L54.16 23.7517V25.2H55.16ZM62.888 28.128L62.5337 29.0631L62.7049 29.128H62.888V28.128ZM83.096 28.128H84.096V27.128H83.096V28.128ZM83.096 29.472V30.472H84.096V29.472H83.096ZM62.504 29.472V28.472H61.504V29.472H62.504ZM55.16 46.416H54.16V47.416H55.16V46.416ZM79.976 28.128H80.976V27.128H79.976V28.128ZM79.448 28.128L78.7072 27.4563L77.1915 29.128H79.448V28.128ZM82.712 24.528L83.3184 23.7328L82.5881 23.1759L81.9712 23.8563L82.712 24.528ZM89.384 29.616L90.1366 30.2745L90.841 29.4695L89.9904 28.8208L89.384 29.616ZM87.368 30.72L87.1464 29.7449L86.368 29.9218V30.72H87.368ZM87.368 44.352L88.358 44.4934L88.368 44.4231V44.352H87.368ZM79.976 45.888H78.976V46.888H79.976V45.888ZM58.76 41.232V40.232H57.76V41.232H58.76ZM84.344 41.232H85.344V40.232H84.344V41.232ZM84.344 42.576V43.576H85.344V42.576H84.344ZM58.76 42.576H57.76V43.576H58.76V42.576ZM48.584 9.648V8.648H47.2583L47.6225 9.92272L48.584 9.648ZM83.24 9.648V10.648H83.7269L84.0272 10.2647L83.24 9.648ZM86.888 4.992L87.4865 4.1909L86.7036 3.60595L86.1008 4.37525L86.888 4.992ZM93.56 10.224L94.5248 10.4871L94.6924 9.87227L94.2059 9.46061L93.56 10.224ZM48.968 10.992L48.0065 11.2667L48.2137 11.992H48.968V10.992ZM50.984 20.4V19.4H49.6583L50.0225 20.6747L50.984 20.4ZM81.368 20.4V21.4H81.854L82.1543 21.0178L81.368 20.4ZM85.064 15.696L85.6581 14.8916L84.8774 14.3149L84.2777 15.0782L85.064 15.696ZM91.784 20.976L92.7488 21.2391L92.9144 20.6318L92.4384 20.2198L91.784 20.976ZM51.368 21.744L50.4065 22.0187L50.6137 22.744H51.368V21.744ZM67.112 0.815998L67.1903 -0.180932L66.112 -0.265615V0.815998H67.112ZM76.28 1.536L77.2712 1.66816L77.4108 0.621721L76.3583 0.539067L76.28 1.536ZM74.312 3.024L74.1576 2.03599L73.312 2.16811V3.024H74.312ZM74.312 21.072V22.072H75.312V21.072H74.312ZM67.112 21.072H66.112V22.072H67.112V21.072ZM56.16 28.128V25.2H54.16V28.128H56.16ZM54.8057 26.1351L62.5337 29.0631L63.2423 27.1929L55.5143 24.2649L54.8057 26.1351ZM62.888 29.128H83.096V27.128H62.888V29.128ZM82.096 28.128V29.472H84.096V28.128H82.096ZM83.096 28.472H62.504V30.472H83.096V28.472ZM61.504 29.472V44.16H63.504V29.472H61.504ZM61.504 44.16C61.504 43.8682 61.6585 43.7311 61.6087 43.7875C61.5876 43.8113 61.5202 43.8757 61.38 43.9721C61.1052 44.1611 60.6735 44.3901 60.121 44.6122C59.0149 45.0568 57.5708 45.416 56.216 45.416V47.416C57.8852 47.416 59.5851 46.9832 60.867 46.4678C61.5085 46.2099 62.0818 45.9169 62.5135 45.6199C62.7266 45.4733 62.9378 45.3037 63.107 45.1123C63.2475 44.9534 63.504 44.6198 63.504 44.16H61.504ZM56.216 45.416H55.16V47.416H56.216V45.416ZM56.16 46.416V28.128H54.16V46.416H56.16ZM79.976 27.128H79.448V29.128H79.976V27.128ZM80.1888 28.7997L83.4528 25.1997L81.9712 23.8563L78.7072 27.4563L80.1888 28.7997ZM82.1056 25.3232L88.7776 30.4112L89.9904 28.8208L83.3184 23.7328L82.1056 25.3232ZM88.6314 28.9575C88.432 29.1854 87.9927 29.5525 87.1464 29.7449L87.5896 31.6951C88.8553 31.4075 89.664 30.8146 90.1366 30.2745L88.6314 28.9575ZM86.368 30.72V44.352H88.368V30.72H86.368ZM86.3781 44.2106C86.4061 44.0145 86.4874 43.8787 86.5333 43.8131C86.582 43.7435 86.628 43.6998 86.6487 43.6811C86.6889 43.645 86.7094 43.6362 86.6813 43.6527C86.6308 43.6825 86.5234 43.7359 86.3468 43.8081C86.0024 43.9489 85.5 44.1185 84.9101 44.2825C83.7167 44.6144 82.2927 44.888 81.224 44.888V46.888C82.5553 46.888 84.1794 46.5616 85.4459 46.2095C86.086 46.0315 86.6666 45.8381 87.1037 45.6594C87.3179 45.5718 87.5258 45.4764 87.696 45.3762C87.7783 45.3278 87.8854 45.2588 87.9862 45.1681C88.0438 45.1163 88.3018 44.8868 88.358 44.4934L86.3781 44.2106ZM81.224 44.888H79.976V46.888H81.224V44.888ZM80.976 45.888V28.128H78.976V45.888H80.976ZM58.76 42.232H84.344V40.232H58.76V42.232ZM83.344 41.232V42.576H85.344V41.232H83.344ZM84.344 41.576H58.76V43.576H84.344V41.576ZM59.76 42.576V41.232H57.76V42.576H59.76ZM48.584 10.648H83.24V8.648H48.584V10.648ZM84.0272 10.2647L87.6752 5.60874L86.1008 4.37525L82.4528 9.03125L84.0272 10.2647ZM86.888 4.992C86.2895 5.7931 86.2895 5.7931 86.2895 5.79312C86.2895 5.79314 86.2896 5.79316 86.2896 5.7932C86.2897 5.79328 86.2899 5.79341 86.2901 5.79358C86.2906 5.79393 86.2913 5.79447 86.2923 5.79519C86.2942 5.79664 86.2971 5.79883 86.301 5.80175C86.3089 5.8076 86.3206 5.81636 86.336 5.82791C86.3668 5.85102 86.4126 5.8853 86.4717 5.92973C86.59 6.01861 86.7621 6.1481 86.9764 6.31016C87.4051 6.63433 88.0028 7.08852 88.678 7.60836C90.0319 8.65079 91.6846 9.9471 92.9141 10.9874L94.2059 9.46061C92.9394 8.38889 91.2561 7.06921 89.8981 6.02364C89.2172 5.49947 88.6149 5.04167 88.1826 4.71484C87.9664 4.5514 87.7927 4.42064 87.6729 4.33064C87.613 4.28564 87.5666 4.25082 87.535 4.22719C87.5193 4.21538 87.5072 4.20636 87.4991 4.20027C87.495 4.19723 87.4919 4.19491 87.4898 4.19334C87.4888 4.19256 87.488 4.19196 87.4874 4.19155C87.4871 4.19135 87.4869 4.19119 87.4868 4.19108C87.4867 4.19103 87.4866 4.19098 87.4866 4.19095C87.4866 4.19092 87.4865 4.1909 86.888 4.992ZM92.5952 9.96088C92.6 9.94326 92.6111 9.9226 92.624 9.90783C92.6347 9.89568 92.6342 9.90156 92.6061 9.91596C92.5413 9.94915 92.3977 9.992 92.168 9.992V11.992C92.9573 11.992 94.1928 11.7044 94.5248 10.4871L92.5952 9.96088ZM92.168 9.992H48.968V11.992H92.168V9.992ZM49.9295 10.7173L49.5455 9.37328L47.6225 9.92272L48.0065 11.2667L49.9295 10.7173ZM50.984 21.4H81.368V19.4H50.984V21.4ZM82.1543 21.0178L85.8503 16.3138L84.2777 15.0782L80.5817 19.7822L82.1543 21.0178ZM85.064 15.696C84.4699 16.5004 84.4699 16.5004 84.4699 16.5004C84.4699 16.5004 84.4699 16.5004 84.47 16.5005C84.4701 16.5005 84.4703 16.5006 84.4705 16.5008C84.4709 16.5012 84.4717 16.5017 84.4726 16.5024C84.4746 16.5038 84.4775 16.506 84.4814 16.5089C84.4893 16.5147 84.5011 16.5235 84.5166 16.535C84.5477 16.558 84.5939 16.5923 84.6536 16.6367C84.773 16.7255 84.9467 16.855 85.163 17.0172C85.5958 17.3418 86.1987 17.797 86.8791 18.3193C88.2445 19.3672 89.905 20.6724 91.1296 21.7322L92.4384 20.2198C91.167 19.1196 89.4675 17.7848 88.0969 16.7327C87.4093 16.205 86.8002 15.7452 86.363 15.4172C86.1443 15.2532 85.9685 15.1221 85.8472 15.0319C85.7865 14.9868 85.7394 14.9518 85.7075 14.9281C85.6915 14.9163 85.6792 14.9072 85.671 14.9011C85.6668 14.898 85.6637 14.8957 85.6615 14.8941C85.6604 14.8933 85.6596 14.8927 85.6591 14.8923C85.6588 14.8921 85.6586 14.8919 85.6584 14.8918C85.6583 14.8918 85.6583 14.8917 85.6582 14.8917C85.6582 14.8917 85.6581 14.8916 85.064 15.696ZM90.8192 20.7129C90.8192 20.7129 90.8206 20.708 90.8248 20.7C90.8289 20.692 90.8343 20.6839 90.8402 20.6768C90.853 20.6615 90.8583 20.6626 90.8392 20.6726C90.7906 20.6981 90.6549 20.744 90.392 20.744V22.744C91.2498 22.744 92.4202 22.444 92.7488 21.2391L90.8192 20.7129ZM90.392 20.744H51.368V22.744H90.392V20.744ZM52.3295 21.4693L51.9455 20.1253L50.0225 20.6747L50.4065 22.0187L52.3295 21.4693ZM67.0337 1.81293L76.2017 2.53293L76.3583 0.539067L67.1903 -0.180932L67.0337 1.81293ZM75.2888 1.40384C75.2579 1.63523 75.2131 1.67625 75.1775 1.70742C75.0994 1.77576 74.8534 1.92728 74.1576 2.03599L74.4664 4.01201C75.3066 3.88072 75.9966 3.64823 76.4945 3.21257C77.0349 2.73974 77.2061 2.15676 77.2712 1.66816L75.2888 1.40384ZM73.312 3.024V21.072H75.312V3.024H73.312ZM74.312 20.072H67.112V22.072H74.312V20.072ZM68.112 21.072V0.815998H66.112V21.072H68.112Z" fill="#AE5E00" mask="url(#path-1-outside-1_65_151)"/>
<defs>
<linearGradient id="paint0_linear_65_151" x1="-23.2222" y1="1.81633" x2="12.6955" y2="75.9834" gradientUnits="userSpaceOnUse">
<stop offset="0.0625" stop-color="#FFEB33"/>
<stop offset="0.197917" stop-color="#FFD400"/>
<stop offset="0.338542" stop-color="#FFF279"/>
<stop offset="0.416667" stop-color="#FFE072"/>
<stop offset="0.661458" stop-color="#FFD12C"/>
<stop offset="0.812133" stop-color="#FFE02D"/>
<stop offset="0.9311" stop-color="#FFD330"/>
</linearGradient>
</defs>
</svg>
