<svg width="94" height="47" viewBox="0 0 94 47" fill="none" xmlns="http://www.w3.org/2000/svg">
<mask id="path-1-outside-1_65_163" maskUnits="userSpaceOnUse" x="-2" y="-1" width="97" height="49" fill="black">
<rect fill="white" x="-2" y="-1" width="97" height="49"/>
<path d="M3.08 20.4H32.792L36.536 15.744C36.536 15.744 40.712 18.864 43.256 20.976C43.112 21.504 42.584 21.744 41.864 21.744H3.464L3.08 20.4ZM0.632 10.608H34.616L38.408 5.856C38.408 5.856 42.728 9.024 45.32 11.184C45.176 11.712 44.6 11.952 43.88 11.952H1.016L0.632 10.608ZM19.208 1.008L28.088 1.872C27.992 2.544 27.656 3.024 26.312 3.216V44.16C26.312 44.832 23.24 46.56 20.552 46.56H19.208V1.008ZM16.04 20.4H24.2V21.168C20.312 30.912 12.104 38.544 0.488 43.344L0.104 42.864C7.784 37.344 13.496 28.416 16.04 20.4ZM26.504 20.4C30.056 28.368 38.072 33.888 45.992 36.24L45.848 36.768C43.256 37.392 41.24 39.6 40.328 42.912C32.744 38.496 28.472 31.344 26.024 20.592L26.504 20.4ZM55.16 28.128V25.2L62.888 28.128H83.096V29.472H62.504V44.16C62.504 44.832 59.24 46.416 56.216 46.416H55.16V28.128ZM79.976 28.128H79.448L82.712 24.528L89.384 29.616C89.048 30 88.424 30.48 87.368 30.72V44.352C87.32 44.688 83.624 45.888 81.224 45.888H79.976V28.128ZM58.76 41.232H84.344V42.576H58.76V41.232ZM48.584 9.648H83.24L86.888 4.992C86.888 4.992 91.064 8.112 93.56 10.224C93.416 10.752 92.84 10.992 92.168 10.992H48.968L48.584 9.648ZM50.984 20.4H81.368L85.064 15.696C85.064 15.696 89.288 18.816 91.784 20.976C91.64 21.504 91.112 21.744 90.392 21.744H51.368L50.984 20.4ZM67.112 0.815998L76.28 1.536C76.184 2.256 75.848 2.784 74.312 3.024V21.072H67.112V0.815998Z"/>
</mask>
<path d="M3.08 20.4H32.792L36.536 15.744C36.536 15.744 40.712 18.864 43.256 20.976C43.112 21.504 42.584 21.744 41.864 21.744H3.464L3.08 20.4ZM0.632 10.608H34.616L38.408 5.856C38.408 5.856 42.728 9.024 45.32 11.184C45.176 11.712 44.6 11.952 43.88 11.952H1.016L0.632 10.608ZM19.208 1.008L28.088 1.872C27.992 2.544 27.656 3.024 26.312 3.216V44.16C26.312 44.832 23.24 46.56 20.552 46.56H19.208V1.008ZM16.04 20.4H24.2V21.168C20.312 30.912 12.104 38.544 0.488 43.344L0.104 42.864C7.784 37.344 13.496 28.416 16.04 20.4ZM26.504 20.4C30.056 28.368 38.072 33.888 45.992 36.24L45.848 36.768C43.256 37.392 41.24 39.6 40.328 42.912C32.744 38.496 28.472 31.344 26.024 20.592L26.504 20.4ZM55.16 28.128V25.2L62.888 28.128H83.096V29.472H62.504V44.16C62.504 44.832 59.24 46.416 56.216 46.416H55.16V28.128ZM79.976 28.128H79.448L82.712 24.528L89.384 29.616C89.048 30 88.424 30.48 87.368 30.72V44.352C87.32 44.688 83.624 45.888 81.224 45.888H79.976V28.128ZM58.76 41.232H84.344V42.576H58.76V41.232ZM48.584 9.648H83.24L86.888 4.992C86.888 4.992 91.064 8.112 93.56 10.224C93.416 10.752 92.84 10.992 92.168 10.992H48.968L48.584 9.648ZM50.984 20.4H81.368L85.064 15.696C85.064 15.696 89.288 18.816 91.784 20.976C91.64 21.504 91.112 21.744 90.392 21.744H51.368L50.984 20.4ZM67.112 0.815998L76.28 1.536C76.184 2.256 75.848 2.784 74.312 3.024V21.072H67.112V0.815998Z" fill="url(#paint0_linear_65_163)"/>
<path d="M3.08 20.4V19.4H1.75427L2.11848 20.6747L3.08 20.4ZM32.792 20.4V21.4H33.2711L33.5713 21.0267L32.792 20.4ZM36.536 15.744L37.1345 14.9429L36.3614 14.3653L35.7567 15.1173L36.536 15.744ZM43.256 20.976L44.2208 21.2391L44.3902 20.6179L43.8948 20.2066L43.256 20.976ZM3.464 21.744L2.50248 22.0187L2.7097 22.744H3.464V21.744ZM0.632 10.608V9.608H-0.69373L-0.329524 10.8827L0.632 10.608ZM34.616 10.608V11.608H35.0974L35.3976 11.2317L34.616 10.608ZM38.408 5.856L38.9994 5.04959L38.2252 4.48186L37.6264 5.23227L38.408 5.856ZM45.32 11.184L46.2848 11.4471L46.4538 10.8272L45.9602 10.4158L45.32 11.184ZM1.016 11.952L0.0544762 12.2267L0.261699 12.952H1.016V11.952ZM19.208 1.008L19.3048 0.0126985L18.208 -0.0940211V1.008H19.208ZM28.088 1.872L29.078 2.01342L29.2259 0.977988L28.1848 0.876699L28.088 1.872ZM26.312 3.216L26.1706 2.22605L25.312 2.3487V3.216H26.312ZM19.208 46.56H18.208V47.56H19.208V46.56ZM16.04 20.4V19.4H15.3082L15.0869 20.0975L16.04 20.4ZM24.2 20.4H25.2V19.4H24.2V20.4ZM24.2 21.168L25.1288 21.5386L25.2 21.3601V21.168H24.2ZM0.488 43.344L-0.292869 43.9687L0.176095 44.5549L0.869902 44.2682L0.488 43.344ZM0.104 42.864L-0.479636 42.052L-1.33462 42.6665L-0.676869 43.4887L0.104 42.864ZM26.504 20.4L27.4174 19.9928L27.0257 19.1143L26.1326 19.4715L26.504 20.4ZM45.992 36.24L46.9568 36.5031L47.214 35.5597L46.2767 35.2814L45.992 36.24ZM45.848 36.768L46.0821 37.7402L46.6571 37.6018L46.8128 37.0311L45.848 36.768ZM40.328 42.912L39.8248 43.7762L40.9473 44.4298L41.2921 43.1775L40.328 42.912ZM26.024 20.592L25.6526 19.6635L24.8593 19.9809L25.049 20.814L26.024 20.592ZM3.08 21.4H32.792V19.4H3.08V21.4ZM33.5713 21.0267L37.3153 16.3707L35.7567 15.1173L32.0127 19.7733L33.5713 21.0267ZM36.536 15.744C35.9375 16.5451 35.9375 16.5451 35.9375 16.5451C35.9375 16.5451 35.9376 16.5452 35.9376 16.5452C35.9377 16.5453 35.9379 16.5454 35.9381 16.5456C35.9386 16.5459 35.9393 16.5465 35.9403 16.5472C35.9423 16.5487 35.9452 16.5509 35.9491 16.5538C35.957 16.5597 35.9687 16.5684 35.9841 16.58C36.0151 16.6032 36.0609 16.6375 36.1201 16.682C36.2386 16.7709 36.411 16.9005 36.6258 17.0627C37.0556 17.387 37.655 17.8415 38.3336 18.3617C39.6938 19.4043 41.361 20.7025 42.6172 21.7454L43.8948 20.2066C42.607 19.1375 40.9142 17.8197 39.5504 16.7743C38.867 16.2505 38.2634 15.793 37.8307 15.4663C37.6143 15.303 37.4405 15.1723 37.3207 15.0824C37.2608 15.0375 37.2144 15.0027 37.1829 14.9791C37.1671 14.9673 37.1551 14.9583 37.147 14.9522C37.1429 14.9492 37.1399 14.9469 37.1378 14.9453C37.1367 14.9445 37.1359 14.9439 37.1354 14.9435C37.1351 14.9433 37.1349 14.9432 37.1348 14.9431C37.1347 14.943 37.1346 14.943 37.1346 14.9429C37.1346 14.9429 37.1345 14.9429 36.536 15.744ZM42.2912 20.7129C42.2912 20.7129 42.2926 20.708 42.2968 20.7C42.3009 20.692 42.3063 20.6839 42.3122 20.6768C42.325 20.6615 42.3303 20.6626 42.3112 20.6726C42.2626 20.6981 42.1269 20.744 41.864 20.744V22.744C42.7218 22.744 43.8922 22.444 44.2208 21.2391L42.2912 20.7129ZM41.864 20.744H3.464V22.744H41.864V20.744ZM4.42552 21.4693L4.04152 20.1253L2.11848 20.6747L2.50248 22.0187L4.42552 21.4693ZM0.632 11.608H34.616V9.608H0.632V11.608ZM35.3976 11.2317L39.1896 6.47973L37.6264 5.23227L33.8344 9.98427L35.3976 11.2317ZM38.408 5.856C37.8166 6.6624 37.8166 6.6624 37.8167 6.66242C37.8167 6.66244 37.8167 6.66246 37.8168 6.6625C37.8169 6.66259 37.8171 6.66271 37.8173 6.66289C37.8178 6.66325 37.8185 6.66379 37.8195 6.66453C37.8215 6.666 37.8246 6.66822 37.8286 6.67119C37.8367 6.67712 37.8488 6.68602 37.8648 6.69776C37.8967 6.72122 37.944 6.75603 38.0052 6.80117C38.1276 6.89144 38.3056 7.02299 38.5274 7.18766C38.9711 7.51706 39.5896 7.97873 40.2887 8.50754C41.6906 9.56791 43.4029 10.8881 44.6798 11.9522L45.9602 10.4158C44.6451 9.31988 42.9014 7.97608 41.4953 6.91246C40.7904 6.37927 40.1669 5.91393 39.7196 5.58184C39.4959 5.41576 39.3162 5.28293 39.1922 5.19152C39.1302 5.14581 39.0822 5.11045 39.0495 5.08645C39.0332 5.07446 39.0208 5.0653 39.0123 5.05912C39.0081 5.05602 39.0049 5.05367 39.0028 5.05208C39.0017 5.05128 39.0008 5.05068 39.0003 5.05026C39 5.05005 38.9998 5.0499 38.9996 5.04978C38.9995 5.04973 38.9995 5.04968 38.9994 5.04965C38.9994 5.04962 38.9994 5.04959 38.408 5.856ZM44.3552 10.9209C44.3601 10.903 44.3717 10.8809 44.3862 10.8646C44.3982 10.8509 44.3986 10.8567 44.3688 10.8716C44.2995 10.9062 44.1426 10.952 43.88 10.952V12.952C44.6974 12.952 45.9496 12.6761 46.2848 11.4471L44.3552 10.9209ZM43.88 10.952H1.016V12.952H43.88V10.952ZM1.97752 11.6773L1.59352 10.3333L-0.329524 10.8827L0.0544762 12.2267L1.97752 11.6773ZM19.1112 2.0033L27.9912 2.8673L28.1848 0.876699L19.3048 0.0126985L19.1112 2.0033ZM27.0981 1.73058C27.0696 1.92942 27.0305 1.95327 27.0144 1.96718C26.9611 2.01319 26.763 2.14142 26.1706 2.22605L26.4534 4.20595C27.205 4.09858 27.8469 3.8908 28.3216 3.48082C28.8335 3.03873 29.0104 2.48657 29.078 2.01342L27.0981 1.73058ZM25.312 3.216V44.16H27.312V3.216H25.312ZM25.312 44.16C25.312 43.8963 25.4416 43.7718 25.3939 43.8314C25.3712 43.8597 25.3063 43.9279 25.1763 44.029C24.9209 44.2275 24.5218 44.4699 24.0166 44.7061C22.9987 45.1818 21.7058 45.56 20.552 45.56V47.56C22.0862 47.56 23.6733 47.0742 24.8634 46.5179C25.4622 46.2381 25.9991 45.9225 26.4037 45.608C26.6037 45.4526 26.7998 45.2755 26.9556 45.0808C27.0864 44.9172 27.312 44.5917 27.312 44.16H25.312ZM20.552 45.56H19.208V47.56H20.552V45.56ZM20.208 46.56V1.008H18.208V46.56H20.208ZM16.04 21.4H24.2V19.4H16.04V21.4ZM23.2 20.4V21.168H25.2V20.4H23.2ZM23.2712 20.7974C19.5039 30.239 11.529 37.6996 0.106098 42.4198L0.869902 44.2682C12.679 39.3884 21.1201 31.585 25.1288 21.5386L23.2712 20.7974ZM1.26887 42.7193L0.884869 42.2393L-0.676869 43.4887L-0.292869 43.9687L1.26887 42.7193ZM0.687636 43.676C8.56855 38.0116 14.3945 28.8908 16.9932 20.7025L15.0869 20.0975C12.5975 27.9412 6.99945 36.6764 -0.479636 42.052L0.687636 43.676ZM25.5906 20.8072C29.295 29.1168 37.5967 34.79 45.7073 37.1986L46.2767 35.2814C38.5473 32.986 30.817 27.6192 27.4174 19.9928L25.5906 20.8072ZM45.0272 35.9769L44.8832 36.5049L46.8128 37.0311L46.9568 36.5031L45.0272 35.9769ZM45.6139 35.7958C42.5724 36.528 40.3432 39.0901 39.3639 42.6465L41.2921 43.1775C42.1368 40.1099 43.9396 38.256 46.0821 37.7402L45.6139 35.7958ZM40.8312 42.0478C33.5688 37.8191 29.4104 30.9611 26.999 20.37L25.049 20.814C27.5336 31.7269 31.9192 39.1729 39.8248 43.7762L40.8312 42.0478ZM26.3954 21.5205L26.8754 21.3285L26.1326 19.4715L25.6526 19.6635L26.3954 21.5205ZM55.16 25.2L55.5143 24.2649L54.16 23.7517V25.2H55.16ZM62.888 28.128L62.5337 29.0631L62.7049 29.128H62.888V28.128ZM83.096 28.128H84.096V27.128H83.096V28.128ZM83.096 29.472V30.472H84.096V29.472H83.096ZM62.504 29.472V28.472H61.504V29.472H62.504ZM55.16 46.416H54.16V47.416H55.16V46.416ZM79.976 28.128H80.976V27.128H79.976V28.128ZM79.448 28.128L78.7072 27.4563L77.1915 29.128H79.448V28.128ZM82.712 24.528L83.3184 23.7328L82.5881 23.1759L81.9712 23.8563L82.712 24.528ZM89.384 29.616L90.1366 30.2745L90.841 29.4695L89.9904 28.8208L89.384 29.616ZM87.368 30.72L87.1464 29.7449L86.368 29.9218V30.72H87.368ZM87.368 44.352L88.358 44.4934L88.368 44.4231V44.352H87.368ZM79.976 45.888H78.976V46.888H79.976V45.888ZM58.76 41.232V40.232H57.76V41.232H58.76ZM84.344 41.232H85.344V40.232H84.344V41.232ZM84.344 42.576V43.576H85.344V42.576H84.344ZM58.76 42.576H57.76V43.576H58.76V42.576ZM48.584 9.648V8.648H47.2583L47.6225 9.92272L48.584 9.648ZM83.24 9.648V10.648H83.7269L84.0272 10.2647L83.24 9.648ZM86.888 4.992L87.4865 4.1909L86.7036 3.60595L86.1008 4.37525L86.888 4.992ZM93.56 10.224L94.5248 10.4871L94.6924 9.87227L94.2059 9.46061L93.56 10.224ZM48.968 10.992L48.0065 11.2667L48.2137 11.992H48.968V10.992ZM50.984 20.4V19.4H49.6583L50.0225 20.6747L50.984 20.4ZM81.368 20.4V21.4H81.854L82.1543 21.0178L81.368 20.4ZM85.064 15.696L85.6581 14.8916L84.8774 14.3149L84.2777 15.0782L85.064 15.696ZM91.784 20.976L92.7488 21.2391L92.9144 20.6318L92.4384 20.2198L91.784 20.976ZM51.368 21.744L50.4065 22.0187L50.6137 22.744H51.368V21.744ZM67.112 0.815998L67.1903 -0.180932L66.112 -0.265615V0.815998H67.112ZM76.28 1.536L77.2712 1.66816L77.4108 0.621721L76.3583 0.539067L76.28 1.536ZM74.312 3.024L74.1576 2.03599L73.312 2.16811V3.024H74.312ZM74.312 21.072V22.072H75.312V21.072H74.312ZM67.112 21.072H66.112V22.072H67.112V21.072ZM56.16 28.128V25.2H54.16V28.128H56.16ZM54.8057 26.1351L62.5337 29.0631L63.2423 27.1929L55.5143 24.2649L54.8057 26.1351ZM62.888 29.128H83.096V27.128H62.888V29.128ZM82.096 28.128V29.472H84.096V28.128H82.096ZM83.096 28.472H62.504V30.472H83.096V28.472ZM61.504 29.472V44.16H63.504V29.472H61.504ZM61.504 44.16C61.504 43.8682 61.6585 43.7311 61.6087 43.7875C61.5876 43.8113 61.5202 43.8757 61.38 43.9721C61.1052 44.1611 60.6735 44.3901 60.121 44.6122C59.0149 45.0568 57.5708 45.416 56.216 45.416V47.416C57.8852 47.416 59.5851 46.9832 60.867 46.4678C61.5085 46.2099 62.0818 45.9169 62.5135 45.6199C62.7266 45.4733 62.9378 45.3037 63.107 45.1123C63.2475 44.9534 63.504 44.6198 63.504 44.16H61.504ZM56.216 45.416H55.16V47.416H56.216V45.416ZM56.16 46.416V28.128H54.16V46.416H56.16ZM79.976 27.128H79.448V29.128H79.976V27.128ZM80.1888 28.7997L83.4528 25.1997L81.9712 23.8563L78.7072 27.4563L80.1888 28.7997ZM82.1056 25.3232L88.7776 30.4112L89.9904 28.8208L83.3184 23.7328L82.1056 25.3232ZM88.6314 28.9575C88.432 29.1854 87.9927 29.5525 87.1464 29.7449L87.5896 31.6951C88.8553 31.4075 89.664 30.8146 90.1366 30.2745L88.6314 28.9575ZM86.368 30.72V44.352H88.368V30.72H86.368ZM86.3781 44.2106C86.4061 44.0145 86.4874 43.8787 86.5333 43.8131C86.582 43.7435 86.628 43.6998 86.6487 43.6811C86.6889 43.645 86.7094 43.6362 86.6813 43.6527C86.6308 43.6825 86.5234 43.7359 86.3468 43.8081C86.0024 43.9489 85.5 44.1185 84.9101 44.2825C83.7167 44.6144 82.2927 44.888 81.224 44.888V46.888C82.5553 46.888 84.1794 46.5616 85.4459 46.2095C86.086 46.0315 86.6666 45.8381 87.1037 45.6594C87.3179 45.5718 87.5258 45.4764 87.696 45.3762C87.7783 45.3278 87.8854 45.2588 87.9862 45.1681C88.0438 45.1163 88.3018 44.8868 88.358 44.4934L86.3781 44.2106ZM81.224 44.888H79.976V46.888H81.224V44.888ZM80.976 45.888V28.128H78.976V45.888H80.976ZM58.76 42.232H84.344V40.232H58.76V42.232ZM83.344 41.232V42.576H85.344V41.232H83.344ZM84.344 41.576H58.76V43.576H84.344V41.576ZM59.76 42.576V41.232H57.76V42.576H59.76ZM48.584 10.648H83.24V8.648H48.584V10.648ZM84.0272 10.2647L87.6752 5.60874L86.1008 4.37525L82.4528 9.03125L84.0272 10.2647ZM86.888 4.992C86.2895 5.7931 86.2895 5.7931 86.2895 5.79312C86.2895 5.79314 86.2896 5.79316 86.2896 5.7932C86.2897 5.79328 86.2899 5.79341 86.2901 5.79358C86.2906 5.79393 86.2913 5.79447 86.2923 5.79519C86.2942 5.79664 86.2971 5.79883 86.301 5.80175C86.3089 5.8076 86.3206 5.81636 86.336 5.82791C86.3668 5.85102 86.4126 5.8853 86.4717 5.92973C86.59 6.01861 86.7621 6.1481 86.9764 6.31016C87.4051 6.63433 88.0028 7.08852 88.678 7.60836C90.0319 8.65079 91.6846 9.9471 92.9141 10.9874L94.2059 9.46061C92.9394 8.38889 91.2561 7.06921 89.8981 6.02364C89.2172 5.49947 88.6149 5.04167 88.1826 4.71484C87.9664 4.5514 87.7927 4.42064 87.6729 4.33064C87.613 4.28564 87.5666 4.25082 87.535 4.22719C87.5193 4.21538 87.5072 4.20636 87.4991 4.20027C87.495 4.19723 87.4919 4.19491 87.4898 4.19334C87.4888 4.19256 87.488 4.19196 87.4874 4.19155C87.4871 4.19135 87.4869 4.19119 87.4868 4.19108C87.4867 4.19103 87.4866 4.19098 87.4866 4.19095C87.4866 4.19092 87.4865 4.1909 86.888 4.992ZM92.5952 9.96088C92.6 9.94326 92.6111 9.9226 92.624 9.90783C92.6347 9.89568 92.6342 9.90156 92.6061 9.91596C92.5413 9.94915 92.3977 9.992 92.168 9.992V11.992C92.9573 11.992 94.1928 11.7044 94.5248 10.4871L92.5952 9.96088ZM92.168 9.992H48.968V11.992H92.168V9.992ZM49.9295 10.7173L49.5455 9.37328L47.6225 9.92272L48.0065 11.2667L49.9295 10.7173ZM50.984 21.4H81.368V19.4H50.984V21.4ZM82.1543 21.0178L85.8503 16.3138L84.2777 15.0782L80.5817 19.7822L82.1543 21.0178ZM85.064 15.696C84.4699 16.5004 84.4699 16.5004 84.4699 16.5004C84.4699 16.5004 84.4699 16.5004 84.47 16.5005C84.4701 16.5005 84.4703 16.5006 84.4705 16.5008C84.4709 16.5012 84.4717 16.5017 84.4726 16.5024C84.4746 16.5038 84.4775 16.506 84.4814 16.5089C84.4893 16.5147 84.5011 16.5235 84.5166 16.535C84.5477 16.558 84.5939 16.5923 84.6536 16.6367C84.773 16.7255 84.9467 16.855 85.163 17.0172C85.5958 17.3418 86.1987 17.797 86.8791 18.3193C88.2445 19.3672 89.905 20.6724 91.1296 21.7322L92.4384 20.2198C91.167 19.1196 89.4675 17.7848 88.0969 16.7327C87.4093 16.205 86.8002 15.7452 86.363 15.4172C86.1443 15.2532 85.9685 15.1221 85.8472 15.0319C85.7865 14.9868 85.7394 14.9518 85.7075 14.9281C85.6915 14.9163 85.6792 14.9072 85.671 14.9011C85.6668 14.898 85.6637 14.8957 85.6615 14.8941C85.6604 14.8933 85.6596 14.8927 85.6591 14.8923C85.6588 14.8921 85.6586 14.8919 85.6584 14.8918C85.6583 14.8918 85.6583 14.8917 85.6582 14.8917C85.6582 14.8917 85.6581 14.8916 85.064 15.696ZM90.8192 20.7129C90.8192 20.7129 90.8206 20.708 90.8248 20.7C90.8289 20.692 90.8343 20.6839 90.8402 20.6768C90.853 20.6615 90.8583 20.6626 90.8392 20.6726C90.7906 20.6981 90.6549 20.744 90.392 20.744V22.744C91.2498 22.744 92.4202 22.444 92.7488 21.2391L90.8192 20.7129ZM90.392 20.744H51.368V22.744H90.392V20.744ZM52.3295 21.4693L51.9455 20.1253L50.0225 20.6747L50.4065 22.0187L52.3295 21.4693ZM67.0337 1.81293L76.2017 2.53293L76.3583 0.539067L67.1903 -0.180932L67.0337 1.81293ZM75.2888 1.40384C75.2579 1.63523 75.2131 1.67625 75.1775 1.70742C75.0994 1.77576 74.8534 1.92728 74.1576 2.03599L74.4664 4.01201C75.3066 3.88072 75.9966 3.64823 76.4945 3.21257C77.0349 2.73974 77.2061 2.15676 77.2712 1.66816L75.2888 1.40384ZM73.312 3.024V21.072H75.312V3.024H73.312ZM74.312 20.072H67.112V22.072H74.312V20.072ZM68.112 21.072V0.815998H66.112V21.072H68.112Z" fill="#0077B9" mask="url(#path-1-outside-1_65_163)"/>
<defs>
<linearGradient id="paint0_linear_65_163" x1="7.88889" y1="-9" x2="12.9942" y2="55.5165" gradientUnits="userSpaceOnUse">
<stop offset="0.109375" stop-color="#6FE1E9"/>
<stop offset="0.270833" stop-color="#B5EFF7"/>
<stop offset="0.46875" stop-color="#54DEDE"/>
<stop offset="0.619792" stop-color="#B6F2FA"/>
<stop offset="0.723958" stop-color="#7FEDE6"/>
<stop offset="0.822917" stop-color="#33D8E2"/>
<stop offset="1" stop-color="#8BFFF8"/>
</linearGradient>
</defs>
</svg>
